<?xml version="1.0" encoding="utf-8" standalone="no"?>
<!DOCTYPE svg PUBLIC "-//W3C//DTD SVG 1.1//EN"
  "http://www.w3.org/Graphics/SVG/1.1/DTD/svg11.dtd">
<svg xmlns:xlink="http://www.w3.org/1999/xlink" width="426.595703pt" height="206.917109pt" viewBox="0 0 426.595703 206.917109" xmlns="http://www.w3.org/2000/svg" version="1.1">
 <metadata>
  <rdf:RDF xmlns:dc="http://purl.org/dc/elements/1.1/" xmlns:cc="http://creativecommons.org/ns#" xmlns:rdf="http://www.w3.org/1999/02/22-rdf-syntax-ns#">
   <cc:Work>
    <dc:type rdf:resource="http://purl.org/dc/dcmitype/StillImage"/>
    <dc:date>2026-06-22T13:47:26.103210</dc:date>
    <dc:format>image/svg+xml</dc:format>
    <dc:creator>
     <cc:Agent>
      <dc:title>Matplotlib v3.9.4, https://matplotlib.org/</dc:title>
     </cc:Agent>
    </dc:creator>
   </cc:Work>
  </rdf:RDF>
 </metadata>
 <defs>
  <style type="text/css">*{stroke-linejoin: round; stroke-linecap: butt}</style>
 </defs>
 <g id="figure_1">
  <g id="patch_1">
   <path d="M 0 206.917109 
L 426.595703 206.917109 
L 426.595703 0 
L 0 0 
z
" style="fill: #ffffff"/>
  </g>
  <g id="axes_1">
   <g id="patch_2">
    <path d="M 34.555703 179.98625 
L 205.871493 179.98625 
L 205.871493 13.66625 
L 34.555703 13.66625 
z
" style="fill: #ffffff"/>
   </g>
   <g id="matplotlib.axis_1">
    <g id="xtick_1">
     <g id="line2d_1">
      <defs>
       <path id="m3b8646b681" d="M 0 0 
L 0 3.5 
" style="stroke: #000000; stroke-width: 0.7"/>
      </defs>
      <g>
       <use xlink:href="#m3b8646b681" x="34.555703" y="179.98625" style="stroke: #000000; stroke-width: 0.7"/>
      </g>
     </g>
     <g id="text_1">
      <text style="font: 7.5px 'Helvetica', 'Arial', 'DejaVu Sans', sans-serif; text-anchor: middle" x="34.555703" y="192.366328" transform="rotate(-0 34.555703 192.366328)">0</text>
     </g>
    </g>
    <g id="xtick_2">
     <g id="line2d_2">
      <g>
       <use xlink:href="#m3b8646b681" x="72.625879" y="179.98625" style="stroke: #000000; stroke-width: 0.7"/>
      </g>
     </g>
     <g id="text_2">
      <text style="font: 7.5px 'Helvetica', 'Arial', 'DejaVu Sans', sans-serif; text-anchor: middle" x="72.625879" y="192.366328" transform="rotate(-0 72.625879 192.366328)">20</text>
     </g>
    </g>
    <g id="xtick_3">
     <g id="line2d_3">
      <g>
       <use xlink:href="#m3b8646b681" x="110.696054" y="179.98625" style="stroke: #000000; stroke-width: 0.7"/>
      </g>
     </g>
     <g id="text_3">
      <text style="font: 7.5px 'Helvetica', 'Arial', 'DejaVu Sans', sans-serif; text-anchor: middle" x="110.696054" y="192.366328" transform="rotate(-0 110.696054 192.366328)">40</text>
     </g>
    </g>
    <g id="xtick_4">
     <g id="line2d_4">
      <g>
       <use xlink:href="#m3b8646b681" x="148.766229" y="179.98625" style="stroke: #000000; stroke-width: 0.7"/>
      </g>
     </g>
     <g id="text_4">
      <text style="font: 7.5px 'Helvetica', 'Arial', 'DejaVu Sans', sans-serif; text-anchor: middle" x="148.766229" y="192.366328" transform="rotate(-0 148.766229 192.366328)">60</text>
     </g>
    </g>
    <g id="xtick_5">
     <g id="line2d_5">
      <g>
       <use xlink:href="#m3b8646b681" x="186.836405" y="179.98625" style="stroke: #000000; stroke-width: 0.7"/>
      </g>
     </g>
     <g id="text_5">
      <text style="font: 7.5px 'Helvetica', 'Arial', 'DejaVu Sans', sans-serif; text-anchor: middle" x="186.836405" y="192.366328" transform="rotate(-0 186.836405 192.366328)">80</text>
     </g>
    </g>
    <g id="text_6">
     <text style="font: 8px 'Helvetica', 'Arial', 'DejaVu Sans', sans-serif; text-anchor: middle" x="120.213598" y="203.668359" transform="rotate(-0 120.213598 203.668359)">time</text>
    </g>
   </g>
   <g id="matplotlib.axis_2">
    <g id="ytick_1">
     <g id="line2d_6">
      <defs>
       <path id="m6d8aafe9c3" d="M 0 0 
L -3.5 0 
" style="stroke: #000000; stroke-width: 0.7"/>
      </defs>
      <g>
       <use xlink:href="#m6d8aafe9c3" x="34.555703" y="167.50979" style="stroke: #000000; stroke-width: 0.7"/>
      </g>
     </g>
     <g id="text_7">
      <text style="font: 7.5px 'Helvetica', 'Arial', 'DejaVu Sans', sans-serif; text-anchor: end" x="27.555703" y="170.19983" transform="rotate(-0 27.555703 170.19983)">0.25</text>
     </g>
    </g>
    <g id="ytick_2">
     <g id="line2d_7">
      <g>
       <use xlink:href="#m6d8aafe9c3" x="34.555703" y="146.828014" style="stroke: #000000; stroke-width: 0.7"/>
      </g>
     </g>
     <g id="text_8">
      <text style="font: 7.5px 'Helvetica', 'Arial', 'DejaVu Sans', sans-serif; text-anchor: end" x="27.555703" y="149.518053" transform="rotate(-0 27.555703 149.518053)">0.50</text>
     </g>
    </g>
    <g id="ytick_3">
     <g id="line2d_8">
      <g>
       <use xlink:href="#m6d8aafe9c3" x="34.555703" y="126.146238" style="stroke: #000000; stroke-width: 0.7"/>
      </g>
     </g>
     <g id="text_9">
      <text style="font: 7.5px 'Helvetica', 'Arial', 'DejaVu Sans', sans-serif; text-anchor: end" x="27.555703" y="128.836277" transform="rotate(-0 27.555703 128.836277)">0.75</text>
     </g>
    </g>
    <g id="ytick_4">
     <g id="line2d_9">
      <g>
       <use xlink:href="#m6d8aafe9c3" x="34.555703" y="105.464462" style="stroke: #000000; stroke-width: 0.7"/>
      </g>
     </g>
     <g id="text_10">
      <text style="font: 7.5px 'Helvetica', 'Arial', 'DejaVu Sans', sans-serif; text-anchor: end" x="27.555703" y="108.154501" transform="rotate(-0 27.555703 108.154501)">1.00</text>
     </g>
    </g>
    <g id="ytick_5">
     <g id="line2d_10">
      <g>
       <use xlink:href="#m6d8aafe9c3" x="34.555703" y="84.782685" style="stroke: #000000; stroke-width: 0.7"/>
      </g>
     </g>
     <g id="text_11">
      <text style="font: 7.5px 'Helvetica', 'Arial', 'DejaVu Sans', sans-serif; text-anchor: end" x="27.555703" y="87.472724" transform="rotate(-0 27.555703 87.472724)">1.25</text>
     </g>
    </g>
    <g id="ytick_6">
     <g id="line2d_11">
      <g>
       <use xlink:href="#m6d8aafe9c3" x="34.555703" y="64.100909" style="stroke: #000000; stroke-width: 0.7"/>
      </g>
     </g>
     <g id="text_12">
      <text style="font: 7.5px 'Helvetica', 'Arial', 'DejaVu Sans', sans-serif; text-anchor: end" x="27.555703" y="66.790948" transform="rotate(-0 27.555703 66.790948)">1.50</text>
     </g>
    </g>
    <g id="ytick_7">
     <g id="line2d_12">
      <g>
       <use xlink:href="#m6d8aafe9c3" x="34.555703" y="43.419133" style="stroke: #000000; stroke-width: 0.7"/>
      </g>
     </g>
     <g id="text_13">
      <text style="font: 7.5px 'Helvetica', 'Arial', 'DejaVu Sans', sans-serif; text-anchor: end" x="27.555703" y="46.109172" transform="rotate(-0 27.555703 46.109172)">1.75</text>
     </g>
    </g>
    <g id="ytick_8">
     <g id="line2d_13">
      <g>
       <use xlink:href="#m6d8aafe9c3" x="34.555703" y="22.737356" style="stroke: #000000; stroke-width: 0.7"/>
      </g>
     </g>
     <g id="text_14">
      <text style="font: 7.5px 'Helvetica', 'Arial', 'DejaVu Sans', sans-serif; text-anchor: end" x="27.555703" y="25.427396" transform="rotate(-0 27.555703 25.427396)">2.00</text>
     </g>
    </g>
    <g id="text_15">
     <!-- $x$ (ADP) -->
     <g transform="translate(7.28 110.78625) rotate(-90)">
      <text>
       <tspan style="font: italic 8px 'STIXGeneral'" x="0" y="-0.171875">𝘹</tspan>
       <tspan style="font: 8px 'Helvetica'" x="3.855988 6.078644 8.742706 14.078644 19.855988 25.191925" y="-0.171875"> (ADP)</tspan>
      </text>
     </g>
    </g>
   </g>
   <g id="line2d_14">
    <path d="M 34.555703 105.464462 
L 34.746102 105.146327 
L 34.9365 105.186071 
L 35.126899 105.576051 
L 35.507696 107.322542 
L 36.078891 111.865959 
L 37.030883 122.145168 
L 38.74447 140.603333 
L 39.696462 148.730636 
L 40.648454 155.108157 
L 41.600447 159.878067 
L 42.362041 162.668452 
L 43.123635 164.656182 
L 43.69483 165.67473 
L 44.266025 166.324296 
L 44.837221 166.629691 
L 45.408416 166.607064 
L 45.979612 166.261707 
L 46.550807 165.584952 
L 47.122003 164.549394 
L 47.693198 163.101011 
L 48.264393 161.145541 
L 48.835589 158.523783 
L 49.406784 154.964737 
L 49.97798 149.992274 
L 50.549175 142.731855 
L 51.120371 131.514499 
L 51.691566 113.262857 
L 52.262761 84.437403 
L 52.833957 52.47397 
L 53.214754 42.632975 
L 53.405152 42.705372 
L 53.595551 45.424664 
L 53.976348 55.733266 
L 55.689934 109.577737 
L 56.451528 126.401904 
L 57.213122 139.238112 
L 57.974716 148.993136 
L 58.73631 156.3667 
L 59.497904 161.871752 
L 60.259497 165.889029 
L 61.021091 168.710531 
L 61.782685 170.566089 
L 62.353881 171.434519 
L 62.925076 171.923035 
L 63.496272 172.079425 
L 64.067467 171.93882 
L 64.638662 171.523485 
L 65.209858 170.841986 
L 65.971452 169.504528 
L 66.733046 167.606368 
L 67.49464 164.978007 
L 68.256234 161.273008 
L 68.827429 157.378241 
L 69.398624 151.890877 
L 69.96982 143.627632 
L 70.350617 135.423398 
L 70.731414 123.518099 
L 71.112211 105.657333 
L 71.683406 63.496729 
L 72.064203 34.042823 
L 72.254602 25.37716 
L 72.445 22.335085 
L 72.635398 24.10699 
L 73.016195 36.194653 
L 74.539383 95.810976 
L 75.300977 116.639087 
L 76.062571 132.242653 
L 76.824165 143.956954 
L 77.585759 152.761519 
L 78.347353 159.342174 
L 79.108947 164.185612 
L 79.870541 167.650698 
L 80.632135 170.012761 
L 81.20333 171.192105 
L 81.774525 171.946299 
L 82.345721 172.33447 
L 82.916916 172.402549 
L 83.488112 172.183523 
L 84.059307 171.697256 
L 84.630503 170.949629 
L 85.392096 169.52596 
L 86.15369 167.534589 
L 86.915284 164.790075 
L 87.48648 162.022577 
L 88.057675 158.334024 
L 88.628871 153.18978 
L 89.200066 145.542134 
L 89.580863 138.040104 
L 89.96166 127.254605 
L 90.342457 111.121616 
L 90.723254 86.926942 
L 91.484848 28.104923 
L 91.675246 22.134536 
L 91.865645 21.663625 
L 92.056043 25.357294 
L 92.627239 47.562604 
L 93.579231 85.998597 
L 94.340825 109.300704 
L 95.102419 126.765466 
L 95.864013 139.852876 
L 96.625607 149.686952 
L 97.3872 157.058254 
L 98.148794 162.521724 
L 98.910388 166.479651 
L 99.671982 169.236231 
L 100.243178 170.659935 
L 100.814373 171.622874 
L 101.385568 172.19122 
L 101.956764 172.417657 
L 102.527959 172.341826 
L 103.099155 171.990397 
L 103.67035 171.376601 
L 104.431944 170.144951 
L 105.193538 168.387242 
L 105.955132 165.964413 
L 106.716726 162.5895 
L 107.287921 159.098553 
L 107.859117 154.276111 
L 108.430312 147.200445 
L 109.001508 135.939826 
L 109.382305 124.15294 
L 109.763101 106.415375 
L 110.334297 64.037727 
L 110.715094 33.742157 
L 110.905492 24.618452 
L 111.095891 21.263868 
L 111.286289 22.892372 
L 111.667086 35.01063 
L 113.190274 95.241393 
L 113.951868 116.244179 
L 114.713462 131.963757 
L 115.475056 143.757949 
L 116.23665 152.619646 
L 116.998244 159.242558 
L 117.759837 164.118071 
L 118.521431 167.607923 
L 119.283025 169.989328 
L 119.854221 171.180454 
L 120.425416 171.944628 
L 120.996612 172.341405 
L 121.567807 172.41711 
L 122.139002 172.205117 
L 122.710198 171.725682 
L 123.281393 170.985113 
L 124.042987 169.572119 
L 124.804581 167.594502 
L 125.566175 164.86983 
L 126.13737 162.12463 
L 126.708566 158.470069 
L 127.279761 153.381622 
L 127.850957 145.833758 
L 128.231754 138.446138 
L 128.612551 127.845787 
L 128.993348 112.009996 
L 129.374145 88.216803 
L 130.135738 28.894203 
L 130.326137 22.393919 
L 130.516535 21.47259 
L 130.706934 24.86107 
L 131.278129 46.789519 
L 132.42052 91.880735 
L 133.182114 113.724206 
L 133.943708 130.076794 
L 134.705302 142.340176 
L 135.466896 151.555504 
L 136.22849 158.451289 
L 136.990084 163.541583 
L 137.751678 167.202596 
L 138.513271 169.721261 
L 139.084467 170.997525 
L 139.655662 171.834538 
L 140.226858 172.294319 
L 140.798053 172.425567 
L 141.369249 172.264011 
L 141.940444 171.83233 
L 142.511639 171.139474 
L 143.273233 169.795543 
L 144.034827 167.902855 
L 144.796421 165.296352 
L 145.558015 161.639121 
L 146.129211 157.809375 
L 146.700406 152.432504 
L 147.271601 144.365293 
L 147.652398 136.377787 
L 148.033195 124.801026 
L 148.413992 107.397433 
L 148.985188 65.55217 
L 149.556383 25.211471 
L 149.746782 21.341413 
L 149.93718 22.575037 
L 150.317977 34.31231 
L 151.841165 94.686929 
L 152.602759 115.828689 
L 153.364353 131.652594 
L 154.125947 143.524141 
L 154.88754 152.444213 
L 155.649134 159.112225 
L 156.410728 164.023268 
L 157.172322 167.541448 
L 157.933916 169.945576 
L 158.505112 171.1508 
L 159.076307 171.927044 
L 159.647502 172.334271 
L 160.218698 172.419207 
L 160.789893 172.215619 
L 161.361089 171.74417 
L 161.932284 171.011618 
L 162.693878 169.610297 
L 163.455472 167.647136 
L 164.217066 164.942719 
L 164.788261 162.219909 
L 165.359457 158.599194 
L 165.930652 153.566046 
L 166.501848 146.116894 
L 166.882645 138.842504 
L 167.263441 128.425892 
L 167.644238 112.887481 
L 168.025035 89.507204 
L 168.977028 22.744941 
L 169.167426 21.353512 
L 169.357825 24.414785 
L 169.738622 37.846833 
L 171.071411 91.304715 
L 171.833005 113.291884 
L 172.594599 129.753151 
L 173.356193 142.097048 
L 174.117787 151.372952 
L 174.879381 158.315395 
L 175.640974 163.442367 
L 176.402568 167.132588 
L 177.164162 169.674667 
L 177.735358 170.965448 
L 178.306553 171.814871 
L 178.877749 172.285369 
L 179.448944 172.426043 
L 180.020139 172.273014 
L 180.591335 171.849365 
L 181.16253 171.164485 
L 181.924124 169.832003 
L 182.685718 167.953254 
L 183.447312 165.365957 
L 184.208906 161.738613 
L 184.780101 157.945135 
L 185.351297 152.628276 
L 185.922492 144.669734 
L 186.303289 136.808303 
L 186.684086 125.437097 
L 187.064883 108.361548 
L 187.636078 67.063421 
L 188.207274 25.855775 
L 188.397672 21.463686 
L 188.588071 22.288711 
L 188.968868 33.62298 
L 190.492056 94.128909 
L 191.25365 115.410407 
L 192.015243 131.339343 
L 192.776837 143.28876 
L 193.538431 152.26757 
L 194.300025 158.980941 
L 195.061619 163.927708 
L 195.823213 167.474364 
L 196.584807 169.901332 
L 197.156002 171.120726 
L 197.727198 171.909097 
L 198.298393 172.326822 
L 198.869589 172.421021 
L 199.440784 172.225859 
L 200.011979 171.762405 
L 200.583175 171.037862 
L 201.344769 169.648175 
L 202.106363 167.699382 
L 202.867957 165.015036 
L 203.629551 161.235823 
L 204.200746 157.257085 
L 204.771941 151.632084 
L 205.343137 143.112259 
L 205.723934 134.596724 
L 205.914332 128.995459 
L 205.914332 128.995459 
" clip-path="url(#pb59a106a17)" style="fill: none; stroke: #0072b2; stroke-width: 1.4; stroke-linecap: square"/>
   </g>
   <g id="line2d_15">
    <path d="M 34.555703 105.464462 
L 35.507696 101.654461 
L 36.078891 100.002469 
L 36.650086 99.068643 
L 37.030883 98.879757 
L 37.41168 99.024064 
L 37.792477 99.465233 
L 38.363673 100.569211 
L 39.315665 103.089434 
L 40.648454 106.648527 
L 41.410048 108.152867 
L 41.981244 108.901326 
L 42.552439 109.292189 
L 42.933236 109.351899 
L 43.314033 109.255909 
L 43.885228 108.84134 
L 44.646822 107.866312 
L 45.789213 105.879202 
L 46.931604 103.973175 
L 47.693198 103.124725 
L 48.264393 102.81154 
L 48.835589 102.789866 
L 49.406784 103.034359 
L 50.168378 103.680854 
L 53.214754 106.813386 
L 53.976348 107.115298 
L 54.737942 107.124594 
L 55.499536 106.867922 
L 56.451528 106.272365 
L 58.73631 104.670837 
L 59.497904 104.398019 
L 60.259497 104.333886 
L 61.21149 104.525087 
L 62.353881 105.021037 
L 64.448264 105.965422 
L 65.400256 106.167053 
L 66.352249 106.168824 
L 67.49464 105.944942 
L 71.112211 105.003258 
L 72.445 105.030362 
L 74.158586 105.337996 
L 76.443368 105.733623 
L 77.966556 105.760877 
L 80.060939 105.52714 
L 82.536119 105.271228 
L 84.440104 105.307595 
L 89.771261 105.583001 
L 97.006404 105.434693 
L 101.575967 105.510426 
L 109.572703 105.469173 
L 116.046251 105.454955 
L 130.516535 105.459369 
L 178.877749 105.464513 
L 205.914332 105.464476 
L 205.914332 105.464476 
" clip-path="url(#pb59a106a17)" style="fill: none; stroke-dasharray: 5.18,2.24; stroke-dashoffset: 0; stroke: #999999; stroke-width: 1.4"/>
   </g>
   <g id="patch_3">
    <path d="M 34.555703 179.98625 
L 34.555703 13.66625 
" style="fill: none; stroke: #000000; stroke-width: 0.7; stroke-linejoin: miter; stroke-linecap: square"/>
   </g>
   <g id="patch_4">
    <path d="M 34.555703 179.98625 
L 205.871493 179.98625 
" style="fill: none; stroke: #000000; stroke-width: 0.7; stroke-linejoin: miter; stroke-linecap: square"/>
   </g>
   <g id="text_16">
    <text style="font: 700 8.5px 'Helvetica', 'Arial', 'DejaVu Sans', sans-serif; text-anchor: middle" x="120.213598" y="7.66625" transform="rotate(-0 120.213598 7.66625)">(a) Sel'kov 1968</text>
   </g>
   <g id="legend_1">
    <g id="line2d_16">
     <path d="M 40.855703 22.537656 
L 47.855703 22.537656 
L 54.855703 22.537656 
" style="fill: none; stroke: #0072b2; stroke-width: 1.4; stroke-linecap: square"/>
    </g>
    <g id="text_17">
     <text style="font: 7px 'Helvetica', 'Arial', 'DejaVu Sans', sans-serif; text-anchor: start" x="60.455703" y="24.987656" transform="rotate(-0 60.455703 24.987656)">limit cycle</text>
    </g>
    <g id="line2d_17">
     <path d="M 40.855703 32.630781 
L 47.855703 32.630781 
L 54.855703 32.630781 
" style="fill: none; stroke-dasharray: 5.18,2.24; stroke-dashoffset: 0; stroke: #999999; stroke-width: 1.4"/>
    </g>
    <g id="text_18">
     <text style="font: 7px 'Helvetica', 'Arial', 'DejaVu Sans', sans-serif; text-anchor: start" x="60.455703" y="35.080781" transform="rotate(-0 60.455703 35.080781)">fixed point</text>
    </g>
   </g>
  </g>
  <g id="axes_2">
   <g id="patch_5">
    <path d="M 253.839914 179.98625 
L 425.155703 179.98625 
L 425.155703 13.66625 
L 253.839914 13.66625 
z
" style="fill: #ffffff"/>
   </g>
   <g id="matplotlib.axis_3">
    <g id="xtick_6">
     <g id="line2d_18">
      <g>
       <use xlink:href="#m3b8646b681" x="253.839914" y="179.98625" style="stroke: #000000; stroke-width: 0.7"/>
      </g>
     </g>
     <g id="text_19">
      <text style="font: 7.5px 'Helvetica', 'Arial', 'DejaVu Sans', sans-serif; text-anchor: middle" x="253.839914" y="192.366328" transform="rotate(-0 253.839914 192.366328)">40.0</text>
     </g>
    </g>
    <g id="xtick_7">
     <g id="line2d_19">
      <g>
       <use xlink:href="#m3b8646b681" x="280.608006" y="179.98625" style="stroke: #000000; stroke-width: 0.7"/>
      </g>
     </g>
     <g id="text_20">
      <text style="font: 7.5px 'Helvetica', 'Arial', 'DejaVu Sans', sans-serif; text-anchor: middle" x="280.608006" y="192.366328" transform="rotate(-0 280.608006 192.366328)">42.5</text>
     </g>
    </g>
    <g id="xtick_8">
     <g id="line2d_20">
      <g>
       <use xlink:href="#m3b8646b681" x="307.376098" y="179.98625" style="stroke: #000000; stroke-width: 0.7"/>
      </g>
     </g>
     <g id="text_21">
      <text style="font: 7.5px 'Helvetica', 'Arial', 'DejaVu Sans', sans-serif; text-anchor: middle" x="307.376098" y="192.366328" transform="rotate(-0 307.376098 192.366328)">45.0</text>
     </g>
    </g>
    <g id="xtick_9">
     <g id="line2d_21">
      <g>
       <use xlink:href="#m3b8646b681" x="334.14419" y="179.98625" style="stroke: #000000; stroke-width: 0.7"/>
      </g>
     </g>
     <g id="text_22">
      <text style="font: 7.5px 'Helvetica', 'Arial', 'DejaVu Sans', sans-serif; text-anchor: middle" x="334.14419" y="192.366328" transform="rotate(-0 334.14419 192.366328)">47.5</text>
     </g>
    </g>
    <g id="xtick_10">
     <g id="line2d_22">
      <g>
       <use xlink:href="#m3b8646b681" x="360.912282" y="179.98625" style="stroke: #000000; stroke-width: 0.7"/>
      </g>
     </g>
     <g id="text_23">
      <text style="font: 7.5px 'Helvetica', 'Arial', 'DejaVu Sans', sans-serif; text-anchor: middle" x="360.912282" y="192.366328" transform="rotate(-0 360.912282 192.366328)">50.0</text>
     </g>
    </g>
    <g id="xtick_11">
     <g id="line2d_23">
      <g>
       <use xlink:href="#m3b8646b681" x="387.680374" y="179.98625" style="stroke: #000000; stroke-width: 0.7"/>
      </g>
     </g>
     <g id="text_24">
      <text style="font: 7.5px 'Helvetica', 'Arial', 'DejaVu Sans', sans-serif; text-anchor: middle" x="387.680374" y="192.366328" transform="rotate(-0 387.680374 192.366328)">52.5</text>
     </g>
    </g>
    <g id="xtick_12">
     <g id="line2d_24">
      <g>
       <use xlink:href="#m3b8646b681" x="414.448466" y="179.98625" style="stroke: #000000; stroke-width: 0.7"/>
      </g>
     </g>
     <g id="text_25">
      <text style="font: 7.5px 'Helvetica', 'Arial', 'DejaVu Sans', sans-serif; text-anchor: middle" x="414.448466" y="192.366328" transform="rotate(-0 414.448466 192.366328)">55.0</text>
     </g>
    </g>
    <g id="text_26">
     <text style="font: 8px 'Helvetica', 'Arial', 'DejaVu Sans', sans-serif; text-anchor: middle" x="339.497808" y="203.762109" transform="rotate(-0 339.497808 203.762109)">time (steady-state window)</text>
    </g>
   </g>
   <g id="matplotlib.axis_4">
    <g id="ytick_9">
     <g id="line2d_25">
      <g>
       <use xlink:href="#m6d8aafe9c3" x="253.839914" y="173.650075" style="stroke: #000000; stroke-width: 0.7"/>
      </g>
     </g>
     <g id="text_27">
      <text style="font: 7.5px 'Helvetica', 'Arial', 'DejaVu Sans', sans-serif; text-anchor: end" x="246.839914" y="176.340115" transform="rotate(-0 246.839914 176.340115)">0.0</text>
     </g>
    </g>
    <g id="ytick_10">
     <g id="line2d_26">
      <g>
       <use xlink:href="#m6d8aafe9c3" x="253.839914" y="154.101805" style="stroke: #000000; stroke-width: 0.7"/>
      </g>
     </g>
     <g id="text_28">
      <text style="font: 7.5px 'Helvetica', 'Arial', 'DejaVu Sans', sans-serif; text-anchor: end" x="246.839914" y="156.791844" transform="rotate(-0 246.839914 156.791844)">0.5</text>
     </g>
    </g>
    <g id="ytick_11">
     <g id="line2d_27">
      <g>
       <use xlink:href="#m6d8aafe9c3" x="253.839914" y="134.553535" style="stroke: #000000; stroke-width: 0.7"/>
      </g>
     </g>
     <g id="text_29">
      <text style="font: 7.5px 'Helvetica', 'Arial', 'DejaVu Sans', sans-serif; text-anchor: end" x="246.839914" y="137.243574" transform="rotate(-0 246.839914 137.243574)">1.0</text>
     </g>
    </g>
    <g id="ytick_12">
     <g id="line2d_28">
      <g>
       <use xlink:href="#m6d8aafe9c3" x="253.839914" y="115.005265" style="stroke: #000000; stroke-width: 0.7"/>
      </g>
     </g>
     <g id="text_30">
      <text style="font: 7.5px 'Helvetica', 'Arial', 'DejaVu Sans', sans-serif; text-anchor: end" x="246.839914" y="117.695304" transform="rotate(-0 246.839914 117.695304)">1.5</text>
     </g>
    </g>
    <g id="ytick_13">
     <g id="line2d_29">
      <g>
       <use xlink:href="#m6d8aafe9c3" x="253.839914" y="95.456995" style="stroke: #000000; stroke-width: 0.7"/>
      </g>
     </g>
     <g id="text_31">
      <text style="font: 7.5px 'Helvetica', 'Arial', 'DejaVu Sans', sans-serif; text-anchor: end" x="246.839914" y="98.147034" transform="rotate(-0 246.839914 98.147034)">2.0</text>
     </g>
    </g>
    <g id="ytick_14">
     <g id="line2d_30">
      <g>
       <use xlink:href="#m6d8aafe9c3" x="253.839914" y="75.908724" style="stroke: #000000; stroke-width: 0.7"/>
      </g>
     </g>
     <g id="text_32">
      <text style="font: 7.5px 'Helvetica', 'Arial', 'DejaVu Sans', sans-serif; text-anchor: end" x="246.839914" y="78.598764" transform="rotate(-0 246.839914 78.598764)">2.5</text>
     </g>
    </g>
    <g id="ytick_15">
     <g id="line2d_31">
      <g>
       <use xlink:href="#m6d8aafe9c3" x="253.839914" y="56.360454" style="stroke: #000000; stroke-width: 0.7"/>
      </g>
     </g>
     <g id="text_33">
      <text style="font: 7.5px 'Helvetica', 'Arial', 'DejaVu Sans', sans-serif; text-anchor: end" x="246.839914" y="59.050493" transform="rotate(-0 246.839914 59.050493)">3.0</text>
     </g>
    </g>
    <g id="ytick_16">
     <g id="line2d_32">
      <g>
       <use xlink:href="#m6d8aafe9c3" x="253.839914" y="36.812184" style="stroke: #000000; stroke-width: 0.7"/>
      </g>
     </g>
     <g id="text_34">
      <text style="font: 7.5px 'Helvetica', 'Arial', 'DejaVu Sans', sans-serif; text-anchor: end" x="246.839914" y="39.502223" transform="rotate(-0 246.839914 39.502223)">3.5</text>
     </g>
    </g>
    <g id="ytick_17">
     <g id="line2d_33">
      <g>
       <use xlink:href="#m6d8aafe9c3" x="253.839914" y="17.263914" style="stroke: #000000; stroke-width: 0.7"/>
      </g>
     </g>
     <g id="text_35">
      <text style="font: 7.5px 'Helvetica', 'Arial', 'DejaVu Sans', sans-serif; text-anchor: end" x="246.839914" y="19.953953" transform="rotate(-0 246.839914 19.953953)">4.0</text>
     </g>
    </g>
    <g id="text_36">
     <!-- $A_3$ (ATP) -->
     <g transform="translate(230.734914 112.54625) rotate(-90)">
      <text>
       <tspan style="font: italic 8px 'STIXGeneral'" x="0" y="-0.171875">𝘈</tspan>
       <tspan style="font: 5.6px 'STIXGeneral'" x="5.327988" y="0.9156250000000004">𝟥</tspan>
       <tspan style="font: 8px 'Helvetica'" x="8.309227 10.531883 13.195946 18.531883 23.418602 28.754539" y="-0.171875"> (ATP)</tspan>
      </text>
     </g>
    </g>
   </g>
   <g id="line2d_34">
    <path d="M 253.711401 142.006036 
L 253.925589 170.971335 
L 254.353964 170.063518 
L 254.782339 168.355356 
L 254.996527 166.915729 
L 255.210714 164.677354 
L 255.424902 160.839259 
L 255.639089 153.28539 
L 256.924215 78.025975 
L 257.566777 59.365415 
L 257.995153 51.951791 
L 258.423528 47.278638 
L 258.851903 44.571152 
L 259.280278 43.292435 
L 259.494466 43.072452 
L 259.708653 43.088049 
L 259.922841 43.314869 
L 260.351216 44.330212 
L 260.779591 46.010216 
L 261.422154 49.624546 
L 262.278904 56.174064 
L 263.56403 68.488125 
L 266.776843 102.46964 
L 267.633593 113.515282 
L 268.061969 121.544437 
L 268.276156 127.90092 
L 268.490344 141.625563 
L 268.704531 170.962379 
L 268.918719 170.62758 
L 269.347094 169.357142 
L 269.775469 166.940563 
L 269.989657 164.717435 
L 270.203844 160.912058 
L 270.418032 153.434794 
L 271.703157 78.141648 
L 272.34572 59.430065 
L 272.774095 51.993602 
L 273.20247 47.304071 
L 273.630846 44.584796 
L 274.059221 43.297386 
L 274.273408 43.07386 
L 274.487596 43.086303 
L 274.701783 43.310275 
L 275.130159 44.320582 
L 275.558534 45.996156 
L 276.201096 49.604643 
L 277.057847 56.147928 
L 278.342972 68.457033 
L 281.555786 102.434989 
L 282.412536 113.468506 
L 282.840911 121.472104 
L 283.055099 127.785924 
L 283.269286 141.257394 
L 283.483474 170.951776 
L 283.697662 170.634806 
L 284.126037 169.368858 
L 284.554412 166.965242 
L 284.768599 164.757215 
L 284.982787 160.984158 
L 285.196975 153.582778 
L 286.4821 78.25761 
L 287.124663 59.4949 
L 287.553038 52.035545 
L 287.981413 47.3296 
L 288.409788 44.59851 
L 288.838163 43.30239 
L 289.052351 43.075314 
L 289.266538 43.0846 
L 289.480726 43.305719 
L 289.909101 44.310986 
L 290.337476 45.982127 
L 290.980039 49.584767 
L 291.836789 56.121812 
L 292.907727 66.247382 
L 296.120541 99.995381 
L 296.977291 110.324036 
L 297.405666 116.988161 
L 297.834041 127.671969 
L 298.048229 140.900764 
L 298.262417 170.939363 
L 298.476604 170.642022 
L 298.904979 169.380521 
L 299.333354 166.989769 
L 299.547542 164.796699 
L 299.76173 161.055575 
L 299.975917 153.729355 
L 301.261043 78.37387 
L 301.903605 59.559925 
L 302.33198 52.077626 
L 302.760356 47.355226 
L 303.188731 44.612294 
L 303.617106 43.307447 
L 303.831294 43.076816 
L 304.045481 43.082937 
L 304.259669 43.3012 
L 304.688044 44.301422 
L 305.116419 45.968127 
L 305.758982 49.564915 
L 306.615732 56.095714 
L 307.68667 66.216757 
L 310.899483 99.961798 
L 311.756234 110.282517 
L 312.184609 116.933003 
L 312.612984 127.559026 
L 312.827172 140.554971 
L 313.041359 170.924955 
L 313.255547 170.649229 
L 313.683922 169.392131 
L 314.112297 167.014147 
L 314.326485 164.835891 
L 314.540672 161.126319 
L 314.75486 153.874528 
L 316.039985 78.490429 
L 316.682548 59.625141 
L 317.110923 52.119844 
L 317.539298 47.380951 
L 317.967673 44.62615 
L 318.396049 43.312558 
L 318.610236 43.078365 
L 318.824424 43.081318 
L 319.038611 43.296721 
L 319.466986 44.291892 
L 319.895362 45.954157 
L 320.537924 49.545089 
L 321.394675 56.069634 
L 322.465612 66.18614 
L 325.678426 99.928226 
L 326.535176 110.241055 
L 326.963552 116.878007 
L 327.391927 127.447083 
L 327.606114 140.219401 
L 327.820302 170.908353 
L 328.034489 170.656426 
L 328.462865 169.403689 
L 328.89124 167.038376 
L 329.105427 164.874794 
L 329.319615 161.196396 
L 329.533802 154.018299 
L 330.818928 78.607286 
L 331.461491 59.690548 
L 331.889866 52.162199 
L 332.318241 47.406774 
L 332.746616 44.640077 
L 333.174991 43.317722 
L 333.389179 43.079961 
L 333.603366 43.079741 
L 333.817554 43.29228 
L 334.245929 44.282395 
L 334.674304 45.940216 
L 335.316867 49.525288 
L 336.173617 56.043572 
L 337.244555 66.155531 
L 340.457369 99.894667 
L 341.314119 110.199649 
L 341.742494 116.823168 
L 342.170869 127.336115 
L 342.385057 139.893458 
L 342.599244 170.889337 
L 342.813432 170.663614 
L 343.241807 169.415196 
L 343.670182 167.062457 
L 343.88437 164.913411 
L 344.098557 161.265816 
L 344.312745 154.160671 
L 345.597871 78.724443 
L 346.240433 59.756146 
L 346.668808 52.204692 
L 347.097184 47.432697 
L 347.525559 44.654077 
L 347.953934 43.322941 
L 348.168121 43.081605 
L 348.382309 43.078207 
L 348.596497 43.287878 
L 349.024872 44.272931 
L 349.453247 45.926305 
L 350.09581 49.505513 
L 350.95256 56.017529 
L 352.023498 66.124929 
L 355.236311 99.86112 
L 356.093062 110.158299 
L 356.521437 116.768489 
L 356.949812 127.226108 
L 357.164 139.57663 
L 357.378187 170.867665 
L 357.592375 170.670792 
L 358.02075 169.426651 
L 358.449125 167.086391 
L 358.663313 164.951743 
L 358.8775 161.334585 
L 359.091688 154.301643 
L 360.376813 78.841895 
L 361.019376 59.821934 
L 361.447751 52.247322 
L 361.876126 47.458717 
L 362.304501 44.668147 
L 362.732876 43.328213 
L 362.947064 43.083297 
L 363.161252 43.076716 
L 363.375439 43.283515 
L 363.803814 44.263501 
L 364.232189 45.912425 
L 364.874752 49.485765 
L 365.731502 55.991505 
L 366.80244 66.094336 
L 370.015254 99.827586 
L 370.872004 110.117005 
L 371.300379 116.713966 
L 371.728755 127.11704 
L 371.942942 139.268406 
L 372.15713 170.843069 
L 372.371317 170.677962 
L 372.799692 169.438055 
L 373.228068 167.110181 
L 373.442255 164.989796 
L 373.656443 161.402716 
L 373.87063 154.441231 
L 375.155756 78.959651 
L 375.798318 59.887915 
L 376.226694 52.290091 
L 376.655069 47.484837 
L 377.083444 44.68229 
L 377.511819 43.333539 
L 377.726007 43.085036 
L 377.940194 43.075267 
L 378.154382 43.279191 
L 378.582757 44.254105 
L 379.011132 45.898575 
L 379.653695 49.466041 
L 380.510445 55.965499 
L 381.581383 66.063749 
L 384.794197 99.794064 
L 385.650947 110.075766 
L 386.079322 116.659598 
L 386.507697 127.008895 
L 386.721885 138.968345 
L 386.936072 170.815258 
L 387.15026 170.685122 
L 387.578635 169.449407 
L 388.00701 167.133825 
L 388.221198 165.027569 
L 388.435385 161.470212 
L 388.649573 154.579428 
L 389.934698 79.077704 
L 390.577261 59.954087 
L 391.005636 52.332997 
L 391.434011 47.511055 
L 391.862387 44.696504 
L 392.290762 43.338919 
L 392.504949 43.086823 
L 392.719137 43.073861 
L 392.933324 43.274905 
L 393.3617 44.244741 
L 393.790075 45.884754 
L 394.432637 49.446344 
L 395.289388 55.939513 
L 396.360326 66.033172 
L 399.573139 99.760553 
L 400.42989 110.034581 
L 400.858265 116.605382 
L 401.28664 126.901651 
L 401.500827 138.676005 
L 401.715015 170.783905 
L 401.929203 170.692274 
L 402.357578 169.46071 
L 402.785953 167.157328 
L 403.00014 165.065071 
L 403.214328 161.537087 
L 403.428516 154.716254 
L 404.927829 71.552086 
L 405.570391 55.787081 
L 405.998766 49.661888 
L 406.427142 45.912091 
L 406.855517 43.871622 
L 407.283892 43.088658 
L 407.498079 43.072497 
L 407.712267 43.270658 
L 408.140642 44.235411 
L 408.569017 45.870963 
L 409.21158 49.426671 
L 410.06833 55.913543 
L 411.139268 66.0026 
L 414.352082 99.727053 
L 415.208832 109.99345 
L 415.637207 116.551318 
L 416.065582 126.795294 
L 416.27977 138.391009 
L 416.493958 170.748657 
L 416.708145 170.699418 
L 417.13652 169.471963 
L 417.564895 167.18069 
L 417.779083 165.102299 
L 417.993271 161.603346 
L 418.207458 154.851706 
L 419.706771 71.650769 
L 420.349334 55.840997 
L 420.777709 49.695991 
L 421.206084 45.931996 
L 421.634459 43.881227 
L 422.062835 43.090541 
L 422.277022 43.071177 
L 422.49121 43.266451 
L 422.919585 44.226115 
L 423.34796 45.857202 
L 423.990523 49.407025 
L 424.847273 55.887594 
L 425.275648 59.720335 
L 425.275648 59.720335 
" clip-path="url(#pa018f5ce33)" style="fill: none; stroke: #009e73; stroke-linecap: square"/>
   </g>
   <g id="patch_6">
    <path d="M 253.839914 179.98625 
L 253.839914 13.66625 
" style="fill: none; stroke: #000000; stroke-width: 0.7; stroke-linejoin: miter; stroke-linecap: square"/>
   </g>
   <g id="patch_7">
    <path d="M 253.839914 179.98625 
L 425.155703 179.98625 
" style="fill: none; stroke: #000000; stroke-width: 0.7; stroke-linejoin: miter; stroke-linecap: square"/>
   </g>
   <g id="text_37">
    <text style="font: 700 8.5px 'Helvetica', 'Arial', 'DejaVu Sans', sans-serif; text-anchor: middle" x="339.497808" y="7.66625" transform="rotate(-0 339.497808 7.66625)">(b) Wolf--Heinrich 2000 (single-cell core)</text>
   </g>
  </g>
 </g>
 <defs>
  <clipPath id="pb59a106a17">
   <rect x="34.555703" y="13.66625" width="171.315789" height="166.32"/>
  </clipPath>
  <clipPath id="pa018f5ce33">
   <rect x="253.839914" y="13.66625" width="171.315789" height="166.32"/>
  </clipPath>
 </defs>
</svg>
