<?xml version="1.0" encoding="utf-8" standalone="no"?>
<!DOCTYPE svg PUBLIC "-//W3C//DTD SVG 1.1//EN"
  "http://www.w3.org/Graphics/SVG/1.1/DTD/svg11.dtd">
<svg xmlns:xlink="http://www.w3.org/1999/xlink" width="426.595703pt" height="206.775859pt" viewBox="0 0 426.595703 206.775859" xmlns="http://www.w3.org/2000/svg" version="1.1">
 <metadata>
  <rdf:RDF xmlns:dc="http://purl.org/dc/elements/1.1/" xmlns:cc="http://creativecommons.org/ns#" xmlns:rdf="http://www.w3.org/1999/02/22-rdf-syntax-ns#">
   <cc:Work>
    <dc:type rdf:resource="http://purl.org/dc/dcmitype/StillImage"/>
    <dc:date>2026-06-22T13:41:37.873881</dc:date>
    <dc:format>image/svg+xml</dc:format>
    <dc:creator>
     <cc:Agent>
      <dc:title>Matplotlib v3.9.4, https://matplotlib.org/</dc:title>
     </cc:Agent>
    </dc:creator>
   </cc:Work>
  </rdf:RDF>
 </metadata>
 <defs>
  <style type="text/css">*{stroke-linejoin: round; stroke-linecap: butt}</style>
 </defs>
 <g id="figure_1">
  <g id="patch_1">
   <path d="M 0 206.775859 
L 426.595703 206.775859 
L 426.595703 0 
L 0 0 
z
" style="fill: #ffffff"/>
  </g>
  <g id="axes_1">
   <g id="patch_2">
    <path d="M 34.555703 179.98625 
L 205.871493 179.98625 
L 205.871493 13.66625 
L 34.555703 13.66625 
z
" style="fill: #ffffff"/>
   </g>
   <g id="matplotlib.axis_1">
    <g id="xtick_1">
     <g id="line2d_1">
      <defs>
       <path id="m4704f74852" d="M 0 0 
L 0 3.5 
" style="stroke: #000000; stroke-width: 0.7"/>
      </defs>
      <g>
       <use xlink:href="#m4704f74852" x="34.555703" y="179.98625" style="stroke: #000000; stroke-width: 0.7"/>
      </g>
     </g>
     <g id="text_1">
      <text style="font: 7.5px 'Helvetica', 'Arial', 'DejaVu Sans', sans-serif; text-anchor: middle" x="34.555703" y="192.366328" transform="rotate(-0 34.555703 192.366328)">0</text>
     </g>
    </g>
    <g id="xtick_2">
     <g id="line2d_2">
      <g>
       <use xlink:href="#m4704f74852" x="77.38465" y="179.98625" style="stroke: #000000; stroke-width: 0.7"/>
      </g>
     </g>
     <g id="text_2">
      <text style="font: 7.5px 'Helvetica', 'Arial', 'DejaVu Sans', sans-serif; text-anchor: middle" x="77.38465" y="192.366328" transform="rotate(-0 77.38465 192.366328)">50</text>
     </g>
    </g>
    <g id="xtick_3">
     <g id="line2d_3">
      <g>
       <use xlink:href="#m4704f74852" x="120.213598" y="179.98625" style="stroke: #000000; stroke-width: 0.7"/>
      </g>
     </g>
     <g id="text_3">
      <text style="font: 7.5px 'Helvetica', 'Arial', 'DejaVu Sans', sans-serif; text-anchor: middle" x="120.213598" y="192.366328" transform="rotate(-0 120.213598 192.366328)">100</text>
     </g>
    </g>
    <g id="xtick_4">
     <g id="line2d_4">
      <g>
       <use xlink:href="#m4704f74852" x="163.042545" y="179.98625" style="stroke: #000000; stroke-width: 0.7"/>
      </g>
     </g>
     <g id="text_4">
      <text style="font: 7.5px 'Helvetica', 'Arial', 'DejaVu Sans', sans-serif; text-anchor: middle" x="163.042545" y="192.366328" transform="rotate(-0 163.042545 192.366328)">150</text>
     </g>
    </g>
    <g id="xtick_5">
     <g id="line2d_5">
      <g>
       <use xlink:href="#m4704f74852" x="205.871493" y="179.98625" style="stroke: #000000; stroke-width: 0.7"/>
      </g>
     </g>
     <g id="text_5">
      <text style="font: 7.5px 'Helvetica', 'Arial', 'DejaVu Sans', sans-serif; text-anchor: middle" x="205.871493" y="192.366328" transform="rotate(-0 205.871493 192.366328)">200</text>
     </g>
    </g>
    <g id="text_6">
     <text style="font: 8px 'Helvetica', 'Arial', 'DejaVu Sans', sans-serif; text-anchor: middle" x="120.213598" y="203.668359" transform="rotate(-0 120.213598 203.668359)">time</text>
    </g>
   </g>
   <g id="matplotlib.axis_2">
    <g id="ytick_1">
     <g id="line2d_6">
      <defs>
       <path id="m351f7fea7a" d="M 0 0 
L -3.5 0 
" style="stroke: #000000; stroke-width: 0.7"/>
      </defs>
      <g>
       <use xlink:href="#m351f7fea7a" x="34.555703" y="167.50979" style="stroke: #000000; stroke-width: 0.7"/>
      </g>
     </g>
     <g id="text_7">
      <text style="font: 7.5px 'Helvetica', 'Arial', 'DejaVu Sans', sans-serif; text-anchor: end" x="27.555703" y="170.19983" transform="rotate(-0 27.555703 170.19983)">0.25</text>
     </g>
    </g>
    <g id="ytick_2">
     <g id="line2d_7">
      <g>
       <use xlink:href="#m351f7fea7a" x="34.555703" y="146.828014" style="stroke: #000000; stroke-width: 0.7"/>
      </g>
     </g>
     <g id="text_8">
      <text style="font: 7.5px 'Helvetica', 'Arial', 'DejaVu Sans', sans-serif; text-anchor: end" x="27.555703" y="149.518053" transform="rotate(-0 27.555703 149.518053)">0.50</text>
     </g>
    </g>
    <g id="ytick_3">
     <g id="line2d_8">
      <g>
       <use xlink:href="#m351f7fea7a" x="34.555703" y="126.146238" style="stroke: #000000; stroke-width: 0.7"/>
      </g>
     </g>
     <g id="text_9">
      <text style="font: 7.5px 'Helvetica', 'Arial', 'DejaVu Sans', sans-serif; text-anchor: end" x="27.555703" y="128.836277" transform="rotate(-0 27.555703 128.836277)">0.75</text>
     </g>
    </g>
    <g id="ytick_4">
     <g id="line2d_9">
      <g>
       <use xlink:href="#m351f7fea7a" x="34.555703" y="105.464462" style="stroke: #000000; stroke-width: 0.7"/>
      </g>
     </g>
     <g id="text_10">
      <text style="font: 7.5px 'Helvetica', 'Arial', 'DejaVu Sans', sans-serif; text-anchor: end" x="27.555703" y="108.154501" transform="rotate(-0 27.555703 108.154501)">1.00</text>
     </g>
    </g>
    <g id="ytick_5">
     <g id="line2d_10">
      <g>
       <use xlink:href="#m351f7fea7a" x="34.555703" y="84.782685" style="stroke: #000000; stroke-width: 0.7"/>
      </g>
     </g>
     <g id="text_11">
      <text style="font: 7.5px 'Helvetica', 'Arial', 'DejaVu Sans', sans-serif; text-anchor: end" x="27.555703" y="87.472724" transform="rotate(-0 27.555703 87.472724)">1.25</text>
     </g>
    </g>
    <g id="ytick_6">
     <g id="line2d_11">
      <g>
       <use xlink:href="#m351f7fea7a" x="34.555703" y="64.100909" style="stroke: #000000; stroke-width: 0.7"/>
      </g>
     </g>
     <g id="text_12">
      <text style="font: 7.5px 'Helvetica', 'Arial', 'DejaVu Sans', sans-serif; text-anchor: end" x="27.555703" y="66.790948" transform="rotate(-0 27.555703 66.790948)">1.50</text>
     </g>
    </g>
    <g id="ytick_7">
     <g id="line2d_12">
      <g>
       <use xlink:href="#m351f7fea7a" x="34.555703" y="43.419133" style="stroke: #000000; stroke-width: 0.7"/>
      </g>
     </g>
     <g id="text_13">
      <text style="font: 7.5px 'Helvetica', 'Arial', 'DejaVu Sans', sans-serif; text-anchor: end" x="27.555703" y="46.109172" transform="rotate(-0 27.555703 46.109172)">1.75</text>
     </g>
    </g>
    <g id="ytick_8">
     <g id="line2d_13">
      <g>
       <use xlink:href="#m351f7fea7a" x="34.555703" y="22.737356" style="stroke: #000000; stroke-width: 0.7"/>
      </g>
     </g>
     <g id="text_14">
      <text style="font: 7.5px 'Helvetica', 'Arial', 'DejaVu Sans', sans-serif; text-anchor: end" x="27.555703" y="25.427396" transform="rotate(-0 27.555703 25.427396)">2.00</text>
     </g>
    </g>
    <g id="text_15">
     <!-- $x$ (ADP) -->
     <g transform="translate(7.28 110.78625) rotate(-90)">
      <text>
       <tspan style="font: italic 8px 'STIXGeneral'" x="0" y="-0.171875">𝘹</tspan>
       <tspan style="font: 8px 'Helvetica'" x="3.855988 6.078644 8.742706 14.078644 19.855988 25.191925" y="-0.171875"> (ADP)</tspan>
      </text>
     </g>
    </g>
   </g>
   <g id="line2d_14">
    <path d="M 34.555703 105.464462 
L 34.641382 105.146327 
L 34.727062 105.186071 
L 34.89842 106.29744 
L 35.155458 110.144801 
L 35.755214 124.332665 
L 36.697686 145.693293 
L 37.383121 156.184714 
L 37.982876 162.049894 
L 38.496952 165.03853 
L 38.925348 166.324296 
L 39.182386 166.629691 
L 39.439424 166.607064 
L 39.696462 166.261707 
L 40.039179 165.281654 
L 40.467576 163.101011 
L 40.895972 159.485418 
L 41.324369 153.496616 
L 41.667086 145.486592 
L 42.009803 131.514499 
L 42.352521 104.899685 
L 42.952276 42.632975 
L 43.037955 42.705372 
L 43.209314 50.002445 
L 44.494504 129.946338 
L 45.094259 148.993136 
L 45.694014 160.648052 
L 46.20809 166.696609 
L 46.722166 170.182089 
L 47.150562 171.63695 
L 47.49328 172.061768 
L 47.750318 172.017043 
L 48.007356 171.69163 
L 48.350073 170.841986 
L 48.778469 169.087134 
L 49.206866 166.399505 
L 49.635262 162.330141 
L 50.063659 155.767863 
L 50.406376 146.80561 
L 50.749094 130.052496 
L 51.006132 105.657333 
L 51.605887 22.335085 
L 51.691566 24.10699 
L 51.948604 44.124412 
L 52.634038 101.591277 
L 53.148114 128.752472 
L 53.74787 148.674389 
L 54.261945 159.342174 
L 54.776021 166.071643 
L 55.290097 170.012761 
L 55.718494 171.738214 
L 56.061211 172.33447 
L 56.318249 172.402549 
L 56.575287 172.183523 
L 56.918004 171.47723 
L 57.346401 169.930513 
L 57.774797 167.534589 
L 58.203194 163.948524 
L 58.631591 158.334024 
L 58.974308 150.994551 
L 59.317025 138.040104 
L 59.574063 120.023958 
L 59.831101 86.926942 
L 60.259497 22.134536 
L 60.345177 21.663625 
L 60.516535 31.655085 
L 61.544687 114.153137 
L 62.058763 136.923525 
L 62.658518 153.641355 
L 63.172594 162.521724 
L 63.68667 167.991956 
L 64.115067 170.659935 
L 64.543463 172.042092 
L 64.88618 172.417657 
L 65.143218 172.341826 
L 65.400256 171.990397 
L 65.742974 171.113901 
L 66.17137 169.33808 
L 66.599767 166.644679 
L 67.028163 162.5895 
L 67.45656 156.075235 
L 67.799277 147.200445 
L 68.141994 130.624581 
L 68.399032 106.415375 
L 68.998788 21.263868 
L 69.084467 22.892372 
L 69.341505 43.021539 
L 70.026939 101.07257 
L 70.541015 128.448647 
L 71.14077 148.506207 
L 71.654846 159.242558 
L 72.168922 166.017264 
L 72.682998 169.989328 
L 73.111395 171.73339 
L 73.454112 172.341405 
L 73.71115 172.41711 
L 73.968188 172.205117 
L 74.310905 171.50796 
L 74.739302 169.973797 
L 75.167698 167.594502 
L 75.596095 164.034786 
L 76.024491 158.470069 
L 76.367209 151.213075 
L 76.709926 138.446138 
L 76.966964 120.74735 
L 77.224002 88.216803 
L 77.652398 22.393919 
L 77.738078 21.47259 
L 77.909436 30.98559 
L 78.937588 113.724206 
L 79.451664 136.646064 
L 80.051419 153.473856 
L 80.565495 162.415891 
L 81.079571 167.929659 
L 81.507968 170.624367 
L 81.936364 172.027039 
L 82.279081 172.41585 
L 82.536119 172.348725 
L 82.793157 172.005389 
L 83.135874 171.139474 
L 83.564271 169.378276 
L 83.992668 166.704447 
L 84.421064 162.681018 
L 84.849461 156.229387 
L 85.192178 147.464487 
L 85.534895 131.154681 
L 85.791933 107.397433 
L 86.391688 21.341413 
L 86.477368 22.575037 
L 86.734406 42.267872 
L 87.41984 100.5562 
L 87.933916 128.114283 
L 88.533671 148.303547 
L 89.047747 159.112225 
L 89.561823 165.937414 
L 90.075899 169.945576 
L 90.504296 171.711982 
L 90.847013 172.334271 
L 91.104051 172.419207 
L 91.361089 172.215619 
L 91.703806 171.529094 
L 92.132203 170.008879 
L 92.560599 167.647136 
L 92.988996 164.114235 
L 93.417392 158.599194 
L 93.760109 151.423902 
L 94.102827 138.842504 
L 94.359865 121.45927 
L 94.616903 89.507204 
L 95.045299 22.744941 
L 95.130979 21.353512 
L 95.302337 30.348245 
L 96.330489 113.291884 
L 96.844565 136.365641 
L 97.44432 153.304089 
L 97.958396 162.308286 
L 98.472472 167.865994 
L 98.900868 170.587706 
L 99.329265 172.011112 
L 99.671982 172.413303 
L 99.92902 172.35496 
L 100.186058 172.019776 
L 100.528775 171.164485 
L 100.957172 169.417905 
L 101.385568 166.763544 
L 101.813965 162.771554 
L 102.242362 156.381685 
L 102.585079 147.724716 
L 102.927796 131.675319 
L 103.184834 108.361548 
L 103.784589 21.463686 
L 103.870269 22.288711 
L 104.127307 41.517424 
L 104.89842 105.536184 
L 105.412496 131.339343 
L 106.012251 150.258579 
L 106.526327 160.36712 
L 107.040403 166.702449 
L 107.554479 170.359978 
L 107.982876 171.909097 
L 108.325593 172.392216 
L 108.582631 172.386805 
L 108.839669 172.100531 
L 109.182386 171.308559 
L 109.610783 169.648175 
L 110.039179 167.107196 
L 110.467576 163.296116 
L 110.895972 157.257085 
L 111.23869 149.205048 
L 111.581407 134.596724 
L 111.838445 113.748363 
L 112.181162 59.533047 
L 112.4382 23.144308 
L 112.523879 21.271964 
L 112.695238 29.723713 
L 113.809069 117.460138 
L 114.323145 139.070725 
L 114.9229 154.940619 
L 115.436976 163.342402 
L 115.951052 168.473573 
L 116.379449 170.932961 
L 116.807845 172.15466 
L 117.064883 172.410474 
L 117.321921 172.360939 
L 117.578959 172.033919 
L 117.921676 171.189249 
L 118.350073 169.457236 
L 118.778469 166.822207 
L 119.206866 162.861329 
L 119.635262 156.532348 
L 119.97798 147.981366 
L 120.320697 132.186751 
L 120.577735 109.307683 
L 120.920452 52.072341 
L 121.17749 21.630285 
L 121.263169 22.033542 
L 121.434528 32.942689 
L 122.377001 110.199636 
L 122.891076 134.360723 
L 123.490832 152.08975 
L 124.004908 161.536599 
L 124.518983 167.406697 
L 124.94738 170.320267 
L 125.375777 171.890807 
L 125.718494 172.387684 
L 125.975532 172.391241 
L 126.23257 172.113218 
L 126.575287 171.331857 
L 127.003684 169.685766 
L 127.43208 167.163353 
L 127.860477 163.381538 
L 128.288873 157.398521 
L 128.631591 149.44176 
L 128.974308 135.057387 
L 129.231346 114.592927 
L 129.574063 61.051668 
L 129.831101 23.592479 
L 129.91678 21.229139 
L 130.00246 23.594866 
L 130.259497 44.507899 
L 130.944932 102.077459 
L 131.459008 129.09944 
L 132.058763 148.900729 
L 132.572839 159.496149 
L 133.086915 166.172399 
L 133.600991 170.074032 
L 134.029387 171.774479 
L 134.372105 172.354609 
L 134.629143 172.412259 
L 134.88618 172.183799 
L 135.228898 171.465757 
L 135.657294 169.904078 
L 136.085691 167.489974 
L 136.514087 163.87681 
L 136.942484 158.212541 
L 137.285201 150.790909 
L 137.627919 137.647932 
L 137.884956 119.308162 
L 138.141994 85.626087 
L 138.570391 21.842175 
L 138.65607 21.810809 
L 138.827429 32.27213 
L 139.769901 109.743808 
L 140.283977 134.065294 
L 140.883733 151.910746 
L 141.397808 161.422569 
L 141.911884 167.338444 
L 142.42596 170.695163 
L 142.854357 172.057369 
L 143.111395 172.382863 
L 143.368433 172.395416 
L 143.625471 172.125661 
L 143.968188 171.35491 
L 144.396584 169.723069 
L 144.824981 167.219102 
L 145.253378 163.466259 
L 145.681774 157.538492 
L 146.024491 149.675349 
L 146.367209 135.51019 
L 146.624247 115.421467 
L 146.881285 78.776149 
L 147.224002 24.089845 
L 147.309681 21.22625 
L 147.39536 23.223589 
L 147.652398 43.750322 
L 148.337833 101.567719 
L 148.851909 128.769341 
L 149.451664 148.700625 
L 149.96574 159.367559 
L 150.479816 166.093781 
L 150.993892 170.031164 
L 151.422288 171.753752 
L 151.765005 172.348042 
L 152.022043 172.414864 
L 152.279081 172.194774 
L 152.621799 171.487356 
L 153.050195 169.939695 
L 153.478592 167.543356 
L 153.906988 163.957515 
L 154.335385 158.344229 
L 154.678102 151.007061 
L 155.020819 138.057361 
L 155.277857 120.047264 
L 155.534895 86.953391 
L 155.963292 22.100244 
L 156.048971 21.621794 
L 156.22033 31.612028 
L 157.248482 114.138741 
L 157.762557 136.91498 
L 158.362313 153.636636 
L 158.876389 162.519001 
L 159.390464 167.990572 
L 159.818861 170.659343 
L 160.247258 172.042096 
L 160.589975 172.418043 
L 160.847013 172.342465 
L 161.104051 171.991274 
L 161.446768 171.115101 
L 161.875165 169.339746 
L 162.303561 166.646998 
L 162.731958 162.592909 
L 163.160354 156.080824 
L 163.503072 147.209869 
L 163.845789 130.643266 
L 164.102827 106.449638 
L 164.702582 21.26447 
L 164.788261 22.879734 
L 165.045299 42.99479 
L 165.730734 101.054618 
L 166.24481 128.437062 
L 166.844565 148.499204 
L 167.358641 159.238066 
L 167.872717 166.014522 
L 168.386792 169.987835 
L 168.815189 171.732669 
L 169.157906 172.341178 
L 169.414944 172.417203 
L 169.671982 172.205501 
L 170.014699 171.508712 
L 170.443096 169.975034 
L 170.871493 167.596351 
L 171.299889 164.037574 
L 171.728286 158.474599 
L 172.071003 151.220475 
L 172.41372 138.460069 
L 172.670758 120.772394 
L 172.927796 88.262087 
L 173.356193 22.405297 
L 173.441872 21.467778 
L 173.613231 30.963142 
L 174.641382 113.709183 
L 175.155458 136.63632 
L 175.755214 153.467958 
L 176.269289 162.412154 
L 176.783365 167.92745 
L 177.211762 170.623097 
L 177.640158 172.02649 
L 177.982876 172.415767 
L 178.239914 172.348947 
L 178.496952 172.005895 
L 178.839669 171.14035 
L 179.268065 169.379663 
L 179.696462 166.706515 
L 180.124859 162.684188 
L 180.553255 156.234724 
L 180.895972 147.47362 
L 181.23869 131.172988 
L 181.495728 107.431347 
L 182.095483 21.34494 
L 182.181162 22.564545 
L 182.4382 42.241662 
L 183.123635 100.538139 
L 183.63771 128.102586 
L 184.237466 148.296457 
L 184.751542 159.107664 
L 185.265617 165.934617 
L 185.779693 169.944042 
L 186.20809 171.711228 
L 186.550807 172.334017 
L 186.807845 172.419275 
L 187.064883 172.21598 
L 187.4076 171.529826 
L 187.835997 170.010096 
L 188.264393 167.648964 
L 188.69279 164.116993 
L 189.121187 158.603672 
L 189.463904 151.431203 
L 189.806621 138.856204 
L 190.063659 121.483844 
L 190.320697 89.551844 
L 190.749094 22.758046 
L 190.834773 21.350031 
L 191.006132 30.326252 
L 192.034283 113.276761 
L 192.548359 136.355832 
L 193.148114 153.29815 
L 193.66219 162.304521 
L 194.176266 167.863764 
L 194.604663 170.58642 
L 195.033059 172.010551 
L 195.375777 172.41321 
L 195.632815 172.355173 
L 195.889852 172.020273 
L 196.23257 171.165353 
L 196.660966 169.419281 
L 197.089363 166.765596 
L 197.517759 162.774696 
L 197.946156 156.386964 
L 198.288873 147.733722 
L 198.631591 131.693301 
L 198.888628 108.394833 
L 199.488384 21.468742 
L 199.574063 22.279283 
L 199.831101 41.491318 
L 200.602215 105.519265 
L 201.116291 131.328385 
L 201.716046 150.251936 
L 202.230122 160.362866 
L 202.744198 166.699871 
L 203.258274 170.358601 
L 203.68667 171.908466 
L 204.029387 172.392063 
L 204.286425 172.386964 
L 204.543463 172.100978 
L 204.88618 171.309375 
L 205.314577 169.649491 
L 205.742974 167.10916 
L 205.914332 165.772636 
L 205.914332 165.772636 
" clip-path="url(#pa9734cc520)" style="fill: none; stroke: #0072b2; stroke-width: 1.4; stroke-linecap: square"/>
   </g>
   <g id="line2d_15">
    <path d="M 34.555703 105.464462 
L 35.155458 100.480119 
L 35.498176 99.068643 
L 35.669534 98.879757 
L 35.840893 99.024064 
L 36.097931 99.781525 
L 36.526327 102.023925 
L 37.554479 107.827771 
L 37.982876 109.071947 
L 38.239914 109.341911 
L 38.411272 109.322893 
L 38.66831 109.013432 
L 39.011027 108.147781 
L 39.696462 105.533313 
L 40.296217 103.492122 
L 40.638934 102.88326 
L 40.895972 102.765607 
L 41.15301 102.92609 
L 41.495728 103.492385 
L 42.266841 105.441191 
L 42.866597 106.693059 
L 43.294993 107.115298 
L 43.63771 107.124594 
L 43.980428 106.867922 
L 44.494504 106.13063 
L 45.522655 104.583915 
L 45.951052 104.339725 
L 46.293769 104.377678 
L 46.722166 104.667611 
L 48.435752 106.167053 
L 48.864149 106.168824 
L 49.378225 105.944942 
L 51.006132 105.003258 
L 51.605887 105.030362 
L 52.377001 105.337996 
L 53.405152 105.733623 
L 54.090587 105.760877 
L 55.033059 105.52714 
L 56.23257 105.2651 
L 57.089363 105.321134 
L 59.231346 105.592812 
L 63.343953 105.491125 
L 65.057539 105.494434 
L 67.799277 105.45036 
L 70.969412 105.459929 
L 76.19585 105.462097 
L 88.876389 105.464441 
L 182.609559 105.464462 
L 205.914332 105.464462 
L 205.914332 105.464462 
" clip-path="url(#pa9734cc520)" style="fill: none; stroke-dasharray: 5.18,2.24; stroke-dashoffset: 0; stroke: #999999; stroke-width: 1.4"/>
   </g>
   <g id="patch_3">
    <path d="M 34.555703 179.98625 
L 34.555703 13.66625 
" style="fill: none; stroke: #000000; stroke-width: 0.7; stroke-linejoin: miter; stroke-linecap: square"/>
   </g>
   <g id="patch_4">
    <path d="M 34.555703 179.98625 
L 205.871493 179.98625 
" style="fill: none; stroke: #000000; stroke-width: 0.7; stroke-linejoin: miter; stroke-linecap: square"/>
   </g>
   <g id="text_16">
    <text style="font: 700 8.5px 'Helvetica', 'Arial', 'DejaVu Sans', sans-serif; text-anchor: middle" x="120.213598" y="7.66625" transform="rotate(-0 120.213598 7.66625)">(a) Sel'kov 1968</text>
   </g>
   <g id="legend_1">
    <g id="line2d_16">
     <path d="M 40.855703 22.537656 
L 47.855703 22.537656 
L 54.855703 22.537656 
" style="fill: none; stroke: #0072b2; stroke-width: 1.4; stroke-linecap: square"/>
    </g>
    <g id="text_17">
     <text style="font: 7px 'Helvetica', 'Arial', 'DejaVu Sans', sans-serif; text-anchor: start" x="60.455703" y="24.987656" transform="rotate(-0 60.455703 24.987656)">limit cycle</text>
    </g>
    <g id="line2d_17">
     <path d="M 40.855703 32.630781 
L 47.855703 32.630781 
L 54.855703 32.630781 
" style="fill: none; stroke-dasharray: 5.18,2.24; stroke-dashoffset: 0; stroke: #999999; stroke-width: 1.4"/>
    </g>
    <g id="text_18">
     <text style="font: 7px 'Helvetica', 'Arial', 'DejaVu Sans', sans-serif; text-anchor: start" x="60.455703" y="35.080781" transform="rotate(-0 60.455703 35.080781)">fixed point</text>
    </g>
   </g>
  </g>
  <g id="axes_2">
   <g id="patch_5">
    <path d="M 253.839914 179.98625 
L 425.155703 179.98625 
L 425.155703 13.66625 
L 253.839914 13.66625 
z
" style="fill: #ffffff"/>
   </g>
   <g id="matplotlib.axis_3">
    <g id="xtick_6">
     <g id="line2d_18">
      <g>
       <use xlink:href="#m4704f74852" x="261.626995" y="179.98625" style="stroke: #000000; stroke-width: 0.7"/>
      </g>
     </g>
     <g id="text_19">
      <text style="font: 7.5px 'Helvetica', 'Arial', 'DejaVu Sans', sans-serif; text-anchor: middle" x="261.626995" y="192.366328" transform="rotate(-0 261.626995 192.366328)">0</text>
     </g>
    </g>
    <g id="xtick_7">
     <g id="line2d_19">
      <g>
       <use xlink:href="#m4704f74852" x="292.77532" y="179.98625" style="stroke: #000000; stroke-width: 0.7"/>
      </g>
     </g>
     <g id="text_20">
      <text style="font: 7.5px 'Helvetica', 'Arial', 'DejaVu Sans', sans-serif; text-anchor: middle" x="292.77532" y="192.366328" transform="rotate(-0 292.77532 192.366328)">20</text>
     </g>
    </g>
    <g id="xtick_8">
     <g id="line2d_20">
      <g>
       <use xlink:href="#m4704f74852" x="323.923646" y="179.98625" style="stroke: #000000; stroke-width: 0.7"/>
      </g>
     </g>
     <g id="text_21">
      <text style="font: 7.5px 'Helvetica', 'Arial', 'DejaVu Sans', sans-serif; text-anchor: middle" x="323.923646" y="192.366328" transform="rotate(-0 323.923646 192.366328)">40</text>
     </g>
    </g>
    <g id="xtick_9">
     <g id="line2d_21">
      <g>
       <use xlink:href="#m4704f74852" x="355.071971" y="179.98625" style="stroke: #000000; stroke-width: 0.7"/>
      </g>
     </g>
     <g id="text_22">
      <text style="font: 7.5px 'Helvetica', 'Arial', 'DejaVu Sans', sans-serif; text-anchor: middle" x="355.071971" y="192.366328" transform="rotate(-0 355.071971 192.366328)">60</text>
     </g>
    </g>
    <g id="xtick_10">
     <g id="line2d_22">
      <g>
       <use xlink:href="#m4704f74852" x="386.220296" y="179.98625" style="stroke: #000000; stroke-width: 0.7"/>
      </g>
     </g>
     <g id="text_23">
      <text style="font: 7.5px 'Helvetica', 'Arial', 'DejaVu Sans', sans-serif; text-anchor: middle" x="386.220296" y="192.366328" transform="rotate(-0 386.220296 192.366328)">80</text>
     </g>
    </g>
    <g id="xtick_11">
     <g id="line2d_23">
      <g>
       <use xlink:href="#m4704f74852" x="417.368622" y="179.98625" style="stroke: #000000; stroke-width: 0.7"/>
      </g>
     </g>
     <g id="text_24">
      <text style="font: 7.5px 'Helvetica', 'Arial', 'DejaVu Sans', sans-serif; text-anchor: middle" x="417.368622" y="192.366328" transform="rotate(-0 417.368622 192.366328)">100</text>
     </g>
    </g>
    <g id="text_25">
     <text style="font: 8px 'Helvetica', 'Arial', 'DejaVu Sans', sans-serif; text-anchor: middle" x="339.497808" y="203.668359" transform="rotate(-0 339.497808 203.668359)">time</text>
    </g>
   </g>
   <g id="matplotlib.axis_4">
    <g id="ytick_9">
     <g id="line2d_24">
      <g>
       <use xlink:href="#m351f7fea7a" x="253.839914" y="173.650075" style="stroke: #000000; stroke-width: 0.7"/>
      </g>
     </g>
     <g id="text_26">
      <text style="font: 7.5px 'Helvetica', 'Arial', 'DejaVu Sans', sans-serif; text-anchor: end" x="246.839914" y="176.340115" transform="rotate(-0 246.839914 176.340115)">0.0</text>
     </g>
    </g>
    <g id="ytick_10">
     <g id="line2d_25">
      <g>
       <use xlink:href="#m351f7fea7a" x="253.839914" y="154.101805" style="stroke: #000000; stroke-width: 0.7"/>
      </g>
     </g>
     <g id="text_27">
      <text style="font: 7.5px 'Helvetica', 'Arial', 'DejaVu Sans', sans-serif; text-anchor: end" x="246.839914" y="156.791844" transform="rotate(-0 246.839914 156.791844)">0.5</text>
     </g>
    </g>
    <g id="ytick_11">
     <g id="line2d_26">
      <g>
       <use xlink:href="#m351f7fea7a" x="253.839914" y="134.553535" style="stroke: #000000; stroke-width: 0.7"/>
      </g>
     </g>
     <g id="text_28">
      <text style="font: 7.5px 'Helvetica', 'Arial', 'DejaVu Sans', sans-serif; text-anchor: end" x="246.839914" y="137.243574" transform="rotate(-0 246.839914 137.243574)">1.0</text>
     </g>
    </g>
    <g id="ytick_12">
     <g id="line2d_27">
      <g>
       <use xlink:href="#m351f7fea7a" x="253.839914" y="115.005265" style="stroke: #000000; stroke-width: 0.7"/>
      </g>
     </g>
     <g id="text_29">
      <text style="font: 7.5px 'Helvetica', 'Arial', 'DejaVu Sans', sans-serif; text-anchor: end" x="246.839914" y="117.695304" transform="rotate(-0 246.839914 117.695304)">1.5</text>
     </g>
    </g>
    <g id="ytick_13">
     <g id="line2d_28">
      <g>
       <use xlink:href="#m351f7fea7a" x="253.839914" y="95.456995" style="stroke: #000000; stroke-width: 0.7"/>
      </g>
     </g>
     <g id="text_30">
      <text style="font: 7.5px 'Helvetica', 'Arial', 'DejaVu Sans', sans-serif; text-anchor: end" x="246.839914" y="98.147034" transform="rotate(-0 246.839914 98.147034)">2.0</text>
     </g>
    </g>
    <g id="ytick_14">
     <g id="line2d_29">
      <g>
       <use xlink:href="#m351f7fea7a" x="253.839914" y="75.908724" style="stroke: #000000; stroke-width: 0.7"/>
      </g>
     </g>
     <g id="text_31">
      <text style="font: 7.5px 'Helvetica', 'Arial', 'DejaVu Sans', sans-serif; text-anchor: end" x="246.839914" y="78.598764" transform="rotate(-0 246.839914 78.598764)">2.5</text>
     </g>
    </g>
    <g id="ytick_15">
     <g id="line2d_30">
      <g>
       <use xlink:href="#m351f7fea7a" x="253.839914" y="56.360454" style="stroke: #000000; stroke-width: 0.7"/>
      </g>
     </g>
     <g id="text_32">
      <text style="font: 7.5px 'Helvetica', 'Arial', 'DejaVu Sans', sans-serif; text-anchor: end" x="246.839914" y="59.050493" transform="rotate(-0 246.839914 59.050493)">3.0</text>
     </g>
    </g>
    <g id="ytick_16">
     <g id="line2d_31">
      <g>
       <use xlink:href="#m351f7fea7a" x="253.839914" y="36.812184" style="stroke: #000000; stroke-width: 0.7"/>
      </g>
     </g>
     <g id="text_33">
      <text style="font: 7.5px 'Helvetica', 'Arial', 'DejaVu Sans', sans-serif; text-anchor: end" x="246.839914" y="39.502223" transform="rotate(-0 246.839914 39.502223)">3.5</text>
     </g>
    </g>
    <g id="ytick_17">
     <g id="line2d_32">
      <g>
       <use xlink:href="#m351f7fea7a" x="253.839914" y="17.263914" style="stroke: #000000; stroke-width: 0.7"/>
      </g>
     </g>
     <g id="text_34">
      <text style="font: 7.5px 'Helvetica', 'Arial', 'DejaVu Sans', sans-serif; text-anchor: end" x="246.839914" y="19.953953" transform="rotate(-0 246.839914 19.953953)">4.0</text>
     </g>
    </g>
    <g id="text_35">
     <!-- $A_3$ (ATP) -->
     <g transform="translate(230.734914 112.54625) rotate(-90)">
      <text>
       <tspan style="font: italic 8px 'STIXGeneral'" x="0" y="-0.171875">𝘈</tspan>
       <tspan style="font: 5.6px 'STIXGeneral'" x="5.327988" y="0.9156250000000004">𝟥</tspan>
       <tspan style="font: 8px 'Helvetica'" x="8.309227 10.531883 13.195946 18.531883 23.418602 28.754539" y="-0.171875"> (ATP)</tspan>
      </text>
     </g>
    </g>
   </g>
   <g id="line2d_33">
    <path d="M 261.626995 48.541146 
L 261.689304 49.522446 
L 261.751613 49.25123 
L 261.813922 48.986455 
L 261.876231 49.115955 
L 262.00085 50.78094 
L 262.218932 57.5029 
L 262.655095 79.478154 
L 263.02895 107.77242 
L 263.091259 123.58616 
L 263.122414 172.42625 
L 263.215877 171.952594 
L 263.37165 170.051072 
L 263.465114 165.800098 
L 263.527423 149.181 
L 263.745505 28.644079 
L 263.901278 21.773768 
L 264.088205 21.22625 
L 264.212823 21.320855 
L 264.430905 21.869043 
L 264.711296 23.251579 
L 264.991687 25.822017 
L 265.272078 30.82444 
L 265.552469 40.766346 
L 265.957478 66.079909 
L 266.51826 112.760456 
L 266.580569 132.726675 
L 266.611724 172.14225 
L 266.705188 171.401821 
L 266.829806 169.198655 
L 266.92327 162.714577 
L 267.016733 112.514919 
L 267.234815 33.655397 
L 267.421742 25.064167 
L 267.546361 24.590722 
L 267.577515 24.634892 
L 267.702133 25.185351 
L 267.920215 27.420253 
L 268.169452 32.721468 
L 268.449843 44.818058 
L 268.97947 82.706401 
L 269.353325 116.781961 
L 269.415634 139.126192 
L 269.446789 171.786551 
L 269.540252 170.747681 
L 269.664871 167.046237 
L 269.72718 160.154659 
L 270.225653 30.464947 
L 270.350271 29.541805 
L 270.381425 29.642206 
L 270.506044 30.910991 
L 270.724125 36.204452 
L 271.004516 50.041622 
L 271.721071 103.776701 
L 271.876844 123.422834 
L 271.939153 171.282246 
L 272.094926 168.894528 
L 272.18839 162.483106 
L 272.281853 124.519243 
L 272.53109 46.954436 
L 272.749172 34.91011 
L 272.811481 34.531812 
L 272.842635 34.606236 
L 272.967253 36.264953 
L 273.185335 43.6666 
L 273.528035 65.333172 
L 274.182281 119.377752 
L 274.24459 137.703351 
L 274.275745 171.213825 
L 274.369209 169.967518 
L 274.462672 166.521112 
L 274.524981 159.247052 
L 274.9923 40.411147 
L 275.116918 38.162312 
L 275.148072 38.192895 
L 275.241536 39.306154 
L 275.428463 45.309671 
L 275.740009 64.10687 
L 276.425409 119.615675 
L 276.487718 136.332364 
L 276.550027 170.905855 
L 276.612337 169.813198 
L 276.7058 166.10854 
L 276.768109 158.074774 
L 277.204273 43.792702 
L 277.360046 40.352474 
L 277.3912 40.436448 
L 277.484664 41.76577 
L 277.671591 48.398105 
L 278.045446 72.406512 
L 278.637383 121.835772 
L 278.699692 145.926824 
L 278.730846 171.090472 
L 278.82431 169.409079 
L 278.917774 164.836629 
L 278.980083 153.640195 
L 279.322783 50.581763 
L 279.50971 41.861543 
L 279.572019 41.616742 
L 279.603174 41.815323 
L 279.727792 44.348535 
L 279.977029 56.029937 
L 280.662429 105.365546 
L 280.849356 130.075987 
L 280.911665 171.019783 
L 281.005129 169.222769 
L 281.098593 164.217898 
L 281.192056 137.009632 
L 281.441293 57.841109 
L 281.659375 42.907856 
L 281.721684 42.280898 
L 281.783993 42.57211 
L 281.908611 45.302409 
L 282.157848 57.337238 
L 282.843248 106.894836 
L 282.999021 126.222392 
L 283.092484 170.756991 
L 283.217102 167.367405 
L 283.310566 155.841444 
L 283.684421 49.542264 
L 283.871348 42.693127 
L 283.902503 42.645276 
L 283.995966 43.717513 
L 284.182894 50.183139 
L 284.556748 74.005426 
L 285.148685 124.550719 
L 285.242149 170.869674 
L 285.397921 165.932594 
L 285.491385 147.091841 
L 285.771776 56.9704 
L 285.989858 43.280651 
L 286.052167 42.831307 
L 286.083322 42.952942 
L 286.20794 45.291374 
L 286.426022 54.980447 
L 287.017958 96.281682 
L 287.298349 123.708587 
L 287.391813 170.928621 
L 287.547586 166.208527 
L 287.641049 148.860437 
L 287.92144 57.617136 
L 288.139522 43.448738 
L 288.201831 42.934908 
L 288.232986 43.030198 
L 288.357604 45.287273 
L 288.575686 54.881722 
L 289.167623 96.115653 
L 289.448014 123.24544 
L 289.541477 170.958745 
L 289.69725 166.361407 
L 289.790714 149.839622 
L 290.102259 54.137557 
L 290.320341 43.139357 
L 290.351496 42.991573 
L 290.38265 43.071276 
L 290.476114 44.472598 
L 290.663041 51.473015 
L 291.068051 77.986158 
L 291.597678 122.968861 
L 291.691142 170.974548 
L 291.878069 163.920851 
L 291.971533 135.894221 
L 292.220769 58.225311 
L 292.438851 43.598157 
L 292.50116 43.022401 
L 292.563469 43.368169 
L 292.719242 47.326551 
L 292.999633 62.543011 
L 293.716188 118.034625 
L 293.778497 129.967122 
L 293.840806 170.98349 
L 293.93427 169.157859 
L 294.027734 164.02172 
L 294.121197 136.391036 
L 294.370434 58.377438 
L 294.588516 43.631156 
L 294.650825 43.039252 
L 294.713134 43.372427 
L 294.837752 46.210563 
L 295.086988 58.462303 
L 295.803543 111.027228 
L 295.928161 129.737719 
L 295.990471 170.98907 
L 296.083934 169.178444 
L 296.177398 164.095512 
L 296.270862 136.758106 
L 296.520098 58.48755 
L 296.73818 43.652581 
L 296.800489 43.04862 
L 296.862798 43.372338 
L 296.987416 46.195874 
L 297.236653 58.42778 
L 297.953208 110.970175 
L 298.077826 129.555695 
L 298.140135 170.992864 
L 298.233599 169.195165 
L 298.327062 164.15506 
L 298.420526 137.056426 
L 298.669762 58.575343 
L 298.887844 43.667854 
L 298.950153 43.05401 
L 299.012463 43.369936 
L 299.137081 46.181329 
L 299.386317 58.396548 
L 300.102872 110.920056 
L 300.22749 129.398917 
L 300.289799 170.995567 
L 300.383263 169.209828 
L 300.476727 164.207001 
L 300.57019 137.318282 
L 300.819427 58.651343 
L 301.037509 43.679877 
L 301.099818 43.057299 
L 301.162127 43.366315 
L 301.286745 46.166866 
L 301.535982 58.367061 
L 302.252536 110.87363 
L 302.377155 129.255945 
L 302.439464 170.99747 
L 302.532927 169.22338 
L 302.626391 164.254795 
L 302.719855 137.560744 
L 302.969091 58.721156 
L 303.187173 43.690198 
L 303.249482 43.059491 
L 303.311791 43.362063 
L 303.43641 46.152458 
L 303.685646 58.338507 
L 304.402201 110.829188 
L 304.526819 129.120819 
L 304.589128 170.998675 
L 304.682592 169.236319 
L 304.776055 164.300251 
L 304.869519 137.792839 
L 305.118756 58.787765 
L 305.336837 43.699642 
L 305.399147 43.061121 
L 305.461456 43.357492 
L 305.586074 46.138092 
L 305.83531 58.310455 
L 306.551865 110.785825 
L 306.676483 128.990408 
L 306.738792 170.999198 
L 306.832256 169.248909 
L 306.92572 164.344327 
L 307.019183 138.019365 
L 307.26842 58.852761 
L 307.486502 43.708647 
L 307.548811 43.062474 
L 307.61112 43.352768 
L 307.735738 46.123761 
L 307.984975 58.282675 
L 308.70153 110.743059 
L 308.826148 128.863065 
L 308.888457 170.999006 
L 308.981921 169.261287 
L 309.075384 164.387521 
L 309.168848 138.242831 
L 309.418084 58.916985 
L 309.636166 43.717448 
L 309.698475 43.063701 
L 309.760784 43.347982 
L 309.885403 46.109463 
L 310.134639 58.255047 
L 310.851194 110.70064 
L 310.975812 128.737913 
L 311.038121 170.998045 
L 311.162739 168.253672 
L 311.256203 160.386812 
L 311.816985 43.26371 
L 311.84814 43.064883 
L 311.910449 43.343179 
L 312.035067 46.095195 
L 312.284303 58.227506 
L 313.000858 110.65843 
L 313.125477 128.614481 
L 313.187786 170.996241 
L 313.312404 168.270889 
L 313.405868 160.464266 
L 313.96665 43.268409 
L 313.997804 43.066064 
L 314.060113 43.338387 
L 314.184731 46.080957 
L 314.433968 58.20002 
L 315.150523 110.61636 
L 315.275141 128.492507 
L 315.33745 170.993511 
L 315.462068 168.287983 
L 315.555532 160.540825 
L 316.116314 43.27313 
L 316.147468 43.067265 
L 316.209778 43.333617 
L 316.334396 46.066749 
L 316.583632 58.172569 
L 317.300187 110.574391 
L 317.424805 128.371845 
L 317.487114 170.989765 
L 317.611733 168.30497 
L 317.705196 160.616563 
L 317.892124 86.53941 
L 318.14136 47.202894 
L 318.297133 43.068499 
L 318.328287 43.093531 
L 318.421751 44.359296 
L 318.608678 51.157362 
L 319.013688 77.498887 
L 319.543315 121.76357 
L 319.605624 142.807303 
L 319.636779 170.984897 
L 319.730242 169.32167 
L 319.823706 164.596274 
L 319.91717 139.344091 
L 320.197561 55.152776 
L 320.415643 43.282687 
L 320.446797 43.069773 
L 320.509106 43.324171 
L 320.633725 46.038423 
L 320.882961 58.117744 
L 321.568361 107.667979 
L 321.724134 128.134132 
L 321.786443 170.978795 
L 321.911061 168.338653 
L 322.004525 160.765757 
L 322.160298 97.389242 
L 322.409534 49.294464 
L 322.596462 43.07109 
L 322.627616 43.089836 
L 322.72108 44.339874 
L 322.908007 51.113949 
L 323.281862 75.190601 
L 323.842644 121.617121 
L 323.904953 142.006036 
L 323.936108 170.971335 
L 324.029571 169.345373 
L 324.123035 164.677354 
L 324.216499 139.781416 
L 324.49689 55.256897 
L 324.714971 43.292435 
L 324.746126 43.072452 
L 324.808435 43.314869 
L 324.933053 46.010216 
L 325.18229 58.062996 
L 325.86769 107.59116 
L 326.023463 127.90092 
L 326.085772 170.962379 
L 326.21039 168.371971 
L 326.303854 160.912058 
L 326.459627 97.715087 
L 326.708863 49.36023 
L 326.89579 43.07386 
L 326.926945 43.086303 
L 327.020409 44.320582 
L 327.207336 51.070634 
L 327.581191 75.127065 
L 328.141973 121.472104 
L 328.204282 141.257394 
L 328.235436 170.951776 
L 328.3289 169.368858 
L 328.422364 164.757215 
L 328.515827 140.21739 
L 328.796218 55.361639 
L 329.0143 43.30239 
L 329.045455 43.075314 
L 329.107764 43.305719 
L 329.232382 45.982127 
L 329.481619 58.008316 
L 330.167019 107.514499 
L 330.322792 127.671969 
L 330.385101 170.939363 
L 330.509719 168.404938 
L 330.603183 161.055575 
L 330.727801 110.560358 
L 330.977037 52.077626 
L 331.163965 43.307447 
L 331.195119 43.076816 
L 331.257428 43.3012 
L 331.382046 45.968127 
L 331.631283 57.981 
L 332.316683 107.476224 
L 332.472456 127.559026 
L 332.534765 170.924955 
L 332.659383 168.421293 
L 332.752847 161.126319 
L 332.877465 110.75134 
L 333.126702 52.119844 
L 333.313629 43.312558 
L 333.375938 43.081318 
L 333.407093 43.296721 
L 333.531711 45.954157 
L 333.780947 57.953699 
L 334.466348 107.437987 
L 334.62212 127.447083 
L 334.684429 170.908353 
L 334.809048 168.437562 
L 334.902511 161.196396 
L 335.02713 110.942698 
L 335.276366 52.162199 
L 335.463293 43.317722 
L 335.525602 43.079741 
L 335.556757 43.29228 
L 335.681375 45.940216 
L 335.930612 57.926416 
L 336.616012 107.399786 
L 336.771785 127.336115 
L 336.834094 170.889337 
L 336.958712 168.453747 
L 337.052176 161.265816 
L 337.176794 111.134435 
L 337.42603 52.204692 
L 337.612958 43.322941 
L 337.675267 43.078207 
L 337.706421 43.287878 
L 337.83104 45.926305 
L 338.080276 57.899148 
L 338.765676 107.361622 
L 338.921449 127.226108 
L 338.983758 170.867665 
L 339.108376 168.469848 
L 339.20184 161.334585 
L 339.326458 111.32654 
L 339.575695 52.247322 
L 339.762622 43.328213 
L 339.824931 43.076716 
L 339.856086 43.283515 
L 339.980704 45.912425 
L 340.22994 57.871899 
L 340.915341 107.323496 
L 341.071113 127.11704 
L 341.133423 170.843069 
L 341.258041 168.485865 
L 341.351504 161.402716 
L 341.476123 111.519027 
L 341.725359 52.290091 
L 341.912286 43.333539 
L 341.974596 43.075267 
L 342.00575 43.279191 
L 342.130368 45.898575 
L 342.379605 57.844664 
L 343.065005 107.285406 
L 343.220778 127.008895 
L 343.283087 170.815258 
L 343.407705 168.5018 
L 343.501169 161.470212 
L 343.625787 111.711884 
L 343.875024 52.332997 
L 344.061951 43.338919 
L 344.12426 43.073861 
L 344.155415 43.274905 
L 344.280033 45.884754 
L 344.529269 57.817447 
L 345.214669 107.247352 
L 345.370442 126.901651 
L 345.432751 170.783905 
L 345.55737 168.517652 
L 345.650833 161.537087 
L 345.775451 111.905126 
L 346.024688 52.376045 
L 346.211615 43.344354 
L 346.273924 43.072497 
L 346.305079 43.270658 
L 346.429697 45.870963 
L 346.678934 57.790244 
L 347.364334 107.209333 
L 347.520107 126.795294 
L 347.582416 170.748657 
L 347.738189 167.18069 
L 347.831652 154.851706 
L 348.174352 52.419231 
L 348.36128 43.349843 
L 348.423589 43.071177 
L 348.454743 43.266451 
L 348.579362 45.857202 
L 348.828598 57.76306 
L 349.513998 107.17135 
L 349.669771 126.689807 
L 349.73208 170.709121 
L 349.887853 167.203911 
L 349.981317 154.985796 
L 350.324017 52.462558 
L 350.510944 43.355387 
L 350.573253 43.0699 
L 350.604408 43.262282 
L 350.729026 45.843471 
L 350.978262 57.735891 
L 351.663663 107.133402 
L 351.819435 126.585172 
L 351.912899 170.713679 
L 352.037517 167.226994 
L 352.130981 155.11853 
L 352.473681 52.506025 
L 352.660608 43.360985 
L 352.722918 43.068665 
L 352.754072 43.258153 
L 352.87869 45.82977 
L 353.127927 57.708738 
L 353.813327 107.095489 
L 353.9691 126.481374 
L 354.062563 170.720797 
L 354.187182 167.249939 
L 354.280645 155.249916 
L 354.6545 49.799015 
L 354.841427 43.096478 
L 354.872582 43.067474 
L 354.966046 44.198427 
L 355.152973 50.791437 
L 355.526828 74.714235 
L 356.08761 120.561564 
L 356.149919 137.317538 
L 356.212228 170.727906 
L 356.274537 169.516481 
L 356.368001 165.248553 
L 356.43031 155.379956 
L 356.804164 49.833593 
L 356.991092 43.098554 
L 357.022246 43.066327 
L 357.11571 44.189265 
L 357.302637 50.77013 
L 357.676492 74.68249 
L 358.237274 120.49368 
L 358.299583 137.064282 
L 358.361892 170.735005 
L 358.424201 169.527489 
L 358.517665 165.284464 
L 358.579974 155.508667 
L 358.953829 49.868291 
L 359.140756 43.100678 
L 359.171911 43.065222 
L 359.265374 44.180137 
L 359.452302 50.748846 
L 359.826156 74.650745 
L 360.386938 120.426085 
L 360.449247 136.816532 
L 360.511557 170.742096 
L 360.573866 169.538448 
L 360.667329 165.32012 
L 360.729638 155.636056 
L 361.103493 49.90311 
L 361.29042 43.10285 
L 361.321575 43.06416 
L 361.415039 44.171042 
L 361.601966 50.727586 
L 361.975821 74.619002 
L 362.536603 120.358776 
L 362.598912 136.574041 
L 362.661221 170.749177 
L 362.72353 169.54936 
L 362.816994 165.355523 
L 362.879303 155.762132 
L 363.253158 49.938049 
L 363.440085 43.105071 
L 363.471239 43.063142 
L 363.564703 44.161981 
L 363.75163 50.70635 
L 364.125485 74.58726 
L 364.686267 120.291752 
L 364.748576 136.336601 
L 364.810885 170.756248 
L 364.873194 169.560225 
L 364.966658 165.390674 
L 365.028967 155.8869 
L 365.402822 49.973107 
L 365.589749 43.107341 
L 365.620904 43.062168 
L 365.714367 44.152954 
L 365.901295 50.68514 
L 366.27515 74.555521 
L 366.835932 120.225009 
L 366.898241 136.103989 
L 366.96055 170.763309 
L 367.022859 169.571042 
L 367.116323 165.425578 
L 367.178632 156.010377 
L 367.552486 50.008286 
L 367.739414 43.109659 
L 367.770568 43.061237 
L 367.864032 44.143961 
L 368.050959 50.663953 
L 368.424814 74.523782 
L 368.985596 120.158543 
L 369.047905 135.876014 
L 369.110214 170.770358 
L 369.172523 169.581812 
L 369.265987 165.460235 
L 369.328296 156.132567 
L 369.702151 50.043586 
L 369.889078 43.112026 
L 369.920233 43.06035 
L 370.013696 44.135001 
L 370.200624 50.642792 
L 370.574478 74.492046 
L 371.13526 120.092353 
L 371.197569 135.652488 
L 371.259879 170.777396 
L 371.322188 169.592536 
L 371.415651 165.494649 
L 371.47796 156.253484 
L 371.851815 50.079006 
L 372.038742 43.114442 
L 372.069897 43.059506 
L 372.101052 43.222756 
L 372.22567 45.707813 
L 372.474906 57.465113 
L 373.160306 106.755829 
L 373.316079 125.58253 
L 373.409543 170.784421 
L 373.534161 167.450419 
L 373.627625 156.373139 
L 374.001479 50.114548 
L 374.188407 43.116907 
L 374.219561 43.058706 
L 374.250716 43.21902 
L 374.375334 45.694414 
L 374.624571 57.438128 
L 375.309971 106.718259 
L 375.465744 125.486339 
L 375.559207 170.791432 
L 375.683825 167.472046 
L 375.777289 156.491544 
L 376.151144 50.150211 
L 376.338071 43.119421 
L 376.369226 43.05795 
L 376.40038 43.215324 
L 376.524999 45.681044 
L 376.774235 57.41116 
L 377.459635 106.680722 
L 377.615408 125.390839 
L 377.708872 170.798429 
L 377.83349 167.493546 
L 377.926954 156.608709 
L 378.331963 47.944283 
L 378.51889 43.057237 
L 378.581199 43.564496 
L 378.736972 47.840281 
L 379.017363 63.417607 
L 379.733918 119.830275 
L 379.796227 134.799478 
L 379.858536 170.805409 
L 379.920845 169.634973 
L 380.014309 165.62992 
L 380.107772 145.296533 
L 380.388163 56.66978 
L 380.606245 43.438773 
L 380.668554 43.056568 
L 380.699709 43.208051 
L 380.824327 45.654396 
L 381.073564 57.357272 
L 381.758964 106.605745 
L 381.914737 125.201855 
L 382.0082 170.812372 
L 382.132819 167.536175 
L 382.226282 156.83938 
L 382.631292 48.00028 
L 382.818219 43.055943 
L 382.880528 43.551922 
L 383.036301 47.805557 
L 383.316692 63.358013 
L 384.033247 119.700799 
L 384.095556 134.395518 
L 384.157865 170.819316 
L 384.220174 169.655922 
L 384.313638 165.696159 
L 384.407101 145.702333 
L 384.687492 56.783163 
L 384.905574 43.451576 
L 384.967883 43.055363 
L 384.999038 43.200937 
L 385.123656 45.627867 
L 385.341738 55.449306 
L 385.964829 99.125991 
L 386.214066 125.015496 
L 386.307529 170.826239 
L 386.432147 167.578312 
L 386.525611 157.065235 
L 386.93062 48.056694 
L 387.117548 43.054826 
L 387.179857 43.539495 
L 387.33563 47.770943 
L 387.616021 63.298461 
L 388.332575 119.572337 
L 388.394884 134.005178 
L 388.457194 170.833139 
L 388.519503 169.676693 
L 388.612966 165.76149 
L 388.70643 146.104673 
L 388.986821 56.897235 
L 389.204903 43.464603 
L 389.267212 43.054334 
L 389.298367 43.193982 
L 389.422985 45.60146 
L 389.641067 55.398101 
L 390.233003 96.733867 
L 390.513394 124.831676 
L 390.606858 170.840012 
L 390.762631 165.79382 
L 390.856094 146.304492 
L 391.136485 56.954529 
L 391.354567 43.471202 
L 391.416876 43.053886 
L 391.448031 43.190565 
L 391.572649 45.588302 
L 391.790731 55.372528 
L 392.382668 96.701207 
L 392.663059 124.740692 
L 392.756522 170.846858 
L 392.912295 165.82593 
L 393.005759 146.503383 
L 393.28615 57.011997 
L 393.504232 43.477857 
L 393.566541 43.053482 
L 393.597695 43.187188 
L 393.722314 45.575175 
L 393.940395 55.346973 
L 394.532332 96.668554 
L 394.812723 124.650316 
L 394.906187 170.853671 
L 395.061959 165.85782 
L 395.155423 146.701317 
L 395.435814 57.069636 
L 395.653896 43.484569 
L 395.716205 43.053123 
L 395.74736 43.183851 
L 395.871978 45.562079 
L 396.09006 55.321439 
L 396.681996 96.635909 
L 396.962387 124.560538 
L 397.055851 170.86045 
L 397.211624 165.889493 
L 397.305088 146.89828 
L 397.585479 57.127448 
L 397.80356 43.491337 
L 397.86587 43.052808 
L 397.897024 43.180554 
L 398.021642 45.549013 
L 398.239724 55.295924 
L 398.831661 96.603271 
L 399.112052 124.471347 
L 399.205515 170.86719 
L 399.361288 165.920952 
L 399.454752 147.094251 
L 399.735143 57.185435 
L 399.953225 43.498162 
L 400.015534 43.052537 
L 400.046688 43.177298 
L 400.171307 45.535977 
L 400.389389 55.270429 
L 400.981325 96.570639 
L 401.261716 124.382732 
L 401.35518 170.873887 
L 401.510953 165.952199 
L 401.604416 147.289217 
L 401.884807 57.243597 
L 402.102889 43.505044 
L 402.165198 43.052311 
L 402.196353 43.174081 
L 402.320971 45.522971 
L 402.539053 55.244951 
L 403.13099 96.538013 
L 403.411381 124.294682 
L 403.504844 170.880536 
L 403.660617 165.983236 
L 403.754081 147.483155 
L 404.034472 57.301936 
L 404.252554 43.511984 
L 404.314863 43.05213 
L 404.346017 43.170905 
L 404.470635 45.509996 
L 404.688717 55.219494 
L 405.280654 96.505395 
L 405.561045 124.207192 
L 405.654509 170.887133 
L 405.810281 166.014065 
L 405.903745 147.676042 
L 406.184136 57.360449 
L 406.402218 43.518981 
L 406.464527 43.051993 
L 406.495682 43.16777 
L 406.6203 45.497051 
L 406.838382 55.194054 
L 407.430318 96.472783 
L 407.710709 124.120255 
L 407.804173 170.89367 
L 407.959946 166.044687 
L 408.053409 147.867851 
L 408.3338 57.419137 
L 408.551882 43.526035 
L 408.614191 43.051902 
L 408.645346 43.164675 
L 408.769964 45.484138 
L 408.988046 55.168636 
L 409.579983 96.440178 
L 409.860374 124.033862 
L 409.953837 170.900143 
L 410.10961 166.075104 
L 410.203074 148.058577 
L 410.483465 57.478002 
L 410.701547 43.533147 
L 410.763856 43.051855 
L 410.79501 43.16162 
L 410.919629 45.471254 
L 411.137711 55.143237 
L 411.729647 96.40758 
L 412.010038 123.948003 
L 412.103502 170.906543 
L 412.259275 166.105318 
L 412.352738 148.248186 
L 412.633129 57.537041 
L 412.851211 43.540316 
L 412.91352 43.051852 
L 412.944675 43.158606 
L 413.069293 45.458402 
L 413.287375 55.117857 
L 413.879311 96.374989 
L 414.159702 123.862671 
L 414.253166 170.912863 
L 414.408939 166.135333 
L 414.502403 148.436676 
L 414.782794 57.59626 
L 415.000876 43.547543 
L 415.063185 43.051895 
L 415.094339 43.155632 
L 415.218957 45.44558 
L 415.437039 55.092496 
L 416.028976 96.342404 
L 416.309367 123.777857 
L 416.402831 170.919093 
L 416.558603 166.165148 
L 416.652067 148.624016 
L 416.932458 57.655655 
L 417.15054 43.554827 
L 417.212849 43.051984 
L 417.244004 43.1527 
L 417.368622 45.432789 
L 417.368622 45.432789 
" clip-path="url(#pe2499d560f)" style="fill: none; stroke: #009e73; stroke-linecap: square"/>
   </g>
   <g id="patch_6">
    <path d="M 253.839914 179.98625 
L 253.839914 13.66625 
" style="fill: none; stroke: #000000; stroke-width: 0.7; stroke-linejoin: miter; stroke-linecap: square"/>
   </g>
   <g id="patch_7">
    <path d="M 253.839914 179.98625 
L 425.155703 179.98625 
" style="fill: none; stroke: #000000; stroke-width: 0.7; stroke-linejoin: miter; stroke-linecap: square"/>
   </g>
   <g id="text_36">
    <text style="font: 700 8.5px 'Helvetica', 'Arial', 'DejaVu Sans', sans-serif; text-anchor: middle" x="339.497808" y="7.66625" transform="rotate(-0 339.497808 7.66625)">(b) Wolf--Heinrich 2000 (single-cell core)</text>
   </g>
  </g>
 </g>
 <defs>
  <clipPath id="pa9734cc520">
   <rect x="34.555703" y="13.66625" width="171.315789" height="166.32"/>
  </clipPath>
  <clipPath id="pe2499d560f">
   <rect x="253.839914" y="13.66625" width="171.315789" height="166.32"/>
  </clipPath>
 </defs>
</svg>
