<?xml version="1.0" encoding="utf-8" standalone="no"?>
<!DOCTYPE svg PUBLIC "-//W3C//DTD SVG 1.1//EN"
  "http://www.w3.org/Graphics/SVG/1.1/DTD/svg11.dtd">
<svg xmlns:xlink="http://www.w3.org/1999/xlink" width="333.03125pt" height="217.901047pt" viewBox="0 0 333.03125 217.901047" xmlns="http://www.w3.org/2000/svg" version="1.1">
 <metadata>
  <rdf:RDF xmlns:dc="http://purl.org/dc/elements/1.1/" xmlns:cc="http://creativecommons.org/ns#" xmlns:rdf="http://www.w3.org/1999/02/22-rdf-syntax-ns#">
   <cc:Work>
    <dc:type rdf:resource="http://purl.org/dc/dcmitype/StillImage"/>
    <dc:date>2026-06-22T18:43:27.955299</dc:date>
    <dc:format>image/svg+xml</dc:format>
    <dc:creator>
     <cc:Agent>
      <dc:title>Matplotlib v3.9.4, https://matplotlib.org/</dc:title>
     </cc:Agent>
    </dc:creator>
   </cc:Work>
  </rdf:RDF>
 </metadata>
 <defs>
  <style type="text/css">*{stroke-linejoin: round; stroke-linecap: butt}</style>
 </defs>
 <g id="figure_1">
  <g id="patch_1">
   <path d="M 0 217.901047 
L 333.03125 217.901047 
L 333.03125 0 
L 0 0 
z
" style="fill: #ffffff"/>
  </g>
  <g id="axes_1">
   <g id="patch_2">
    <path d="M 30.27125 191.111438 
L 331.59125 191.111438 
L 331.59125 13.703438 
L 30.27125 13.703438 
z
" style="fill: #ffffff"/>
   </g>
   <g id="matplotlib.axis_1">
    <g id="xtick_1">
     <g id="line2d_1">
      <defs>
       <path id="m0bd63ab467" d="M 0 0 
L 0 3.5 
" style="stroke: #000000; stroke-width: 0.7"/>
      </defs>
      <g>
       <use xlink:href="#m0bd63ab467" x="43.967614" y="191.111438" style="stroke: #000000; stroke-width: 0.7"/>
      </g>
     </g>
     <g id="text_1">
      <text style="font: 7.5px 'Helvetica', 'Arial', 'DejaVu Sans', sans-serif; text-anchor: middle" x="43.967614" y="203.491516" transform="rotate(-0 43.967614 203.491516)">0</text>
     </g>
    </g>
    <g id="xtick_2">
     <g id="line2d_2">
      <g>
       <use xlink:href="#m0bd63ab467" x="98.210638" y="191.111438" style="stroke: #000000; stroke-width: 0.7"/>
      </g>
     </g>
     <g id="text_2">
      <text style="font: 7.5px 'Helvetica', 'Arial', 'DejaVu Sans', sans-serif; text-anchor: middle" x="98.210638" y="203.491516" transform="rotate(-0 98.210638 203.491516)">1</text>
     </g>
    </g>
    <g id="xtick_3">
     <g id="line2d_3">
      <g>
       <use xlink:href="#m0bd63ab467" x="152.453662" y="191.111438" style="stroke: #000000; stroke-width: 0.7"/>
      </g>
     </g>
     <g id="text_3">
      <text style="font: 7.5px 'Helvetica', 'Arial', 'DejaVu Sans', sans-serif; text-anchor: middle" x="152.453662" y="203.491516" transform="rotate(-0 152.453662 203.491516)">2</text>
     </g>
    </g>
    <g id="xtick_4">
     <g id="line2d_4">
      <g>
       <use xlink:href="#m0bd63ab467" x="206.696687" y="191.111438" style="stroke: #000000; stroke-width: 0.7"/>
      </g>
     </g>
     <g id="text_4">
      <text style="font: 7.5px 'Helvetica', 'Arial', 'DejaVu Sans', sans-serif; text-anchor: middle" x="206.696687" y="203.491516" transform="rotate(-0 206.696687 203.491516)">3</text>
     </g>
    </g>
    <g id="xtick_5">
     <g id="line2d_5">
      <g>
       <use xlink:href="#m0bd63ab467" x="260.939711" y="191.111438" style="stroke: #000000; stroke-width: 0.7"/>
      </g>
     </g>
     <g id="text_5">
      <text style="font: 7.5px 'Helvetica', 'Arial', 'DejaVu Sans', sans-serif; text-anchor: middle" x="260.939711" y="203.491516" transform="rotate(-0 260.939711 203.491516)">4</text>
     </g>
    </g>
    <g id="xtick_6">
     <g id="line2d_6">
      <g>
       <use xlink:href="#m0bd63ab467" x="315.182735" y="191.111438" style="stroke: #000000; stroke-width: 0.7"/>
      </g>
     </g>
     <g id="text_6">
      <text style="font: 7.5px 'Helvetica', 'Arial', 'DejaVu Sans', sans-serif; text-anchor: middle" x="315.182735" y="203.491516" transform="rotate(-0 315.182735 203.491516)">5</text>
     </g>
    </g>
    <g id="text_7">
     <text style="font: 8px 'Helvetica', 'Arial', 'DejaVu Sans', sans-serif; text-anchor: middle" x="180.93125" y="214.793547" transform="rotate(-0 180.93125 214.793547)">time</text>
    </g>
   </g>
   <g id="matplotlib.axis_2">
    <g id="ytick_1">
     <g id="line2d_7">
      <defs>
       <path id="m1c71acae9f" d="M 0 0 
L -3.5 0 
" style="stroke: #000000; stroke-width: 0.7"/>
      </defs>
      <g>
       <use xlink:href="#m1c71acae9f" x="30.27125" y="167.094139" style="stroke: #000000; stroke-width: 0.7"/>
      </g>
     </g>
     <g id="text_8">
      <text style="font: 7.5px 'Helvetica', 'Arial', 'DejaVu Sans', sans-serif; text-anchor: end" x="23.27125" y="169.784179" transform="rotate(-0 23.27125 169.784179)">0.7</text>
     </g>
    </g>
    <g id="ytick_2">
     <g id="line2d_8">
      <g>
       <use xlink:href="#m1c71acae9f" x="30.27125" y="133.768446" style="stroke: #000000; stroke-width: 0.7"/>
      </g>
     </g>
     <g id="text_9">
      <text style="font: 7.5px 'Helvetica', 'Arial', 'DejaVu Sans', sans-serif; text-anchor: end" x="23.27125" y="136.458485" transform="rotate(-0 23.27125 136.458485)">0.8</text>
     </g>
    </g>
    <g id="ytick_3">
     <g id="line2d_9">
      <g>
       <use xlink:href="#m1c71acae9f" x="30.27125" y="100.442752" style="stroke: #000000; stroke-width: 0.7"/>
      </g>
     </g>
     <g id="text_10">
      <text style="font: 7.5px 'Helvetica', 'Arial', 'DejaVu Sans', sans-serif; text-anchor: end" x="23.27125" y="103.132791" transform="rotate(-0 23.27125 103.132791)">0.9</text>
     </g>
    </g>
    <g id="ytick_4">
     <g id="line2d_10">
      <g>
       <use xlink:href="#m1c71acae9f" x="30.27125" y="67.117058" style="stroke: #000000; stroke-width: 0.7"/>
      </g>
     </g>
     <g id="text_11">
      <text style="font: 7.5px 'Helvetica', 'Arial', 'DejaVu Sans', sans-serif; text-anchor: end" x="23.27125" y="69.807097" transform="rotate(-0 23.27125 69.807097)">1.0</text>
     </g>
    </g>
    <g id="ytick_5">
     <g id="line2d_11">
      <g>
       <use xlink:href="#m1c71acae9f" x="30.27125" y="33.791364" style="stroke: #000000; stroke-width: 0.7"/>
      </g>
     </g>
     <g id="text_12">
      <text style="font: 7.5px 'Helvetica', 'Arial', 'DejaVu Sans', sans-serif; text-anchor: end" x="23.27125" y="36.481403" transform="rotate(-0 23.27125 36.481403)">1.1</text>
     </g>
    </g>
    <g id="text_13">
     <!-- pyruvate  $x_3$ -->
     <g transform="translate(7.08625 123.407438) rotate(-90)">
      <text>
       <tspan style="font: 8px 'Helvetica'" x="0 4.449219 8.449219 11.113281 15.5625 19.5625 24.011719 26.234375 30.683594 32.90625" y="-0.640625">pyruvate  </tspan>
       <tspan style="font: italic 8px 'STIXGeneral'" x="35.128906" y="-0.640625">𝘹</tspan>
       <tspan style="font: 5.6px 'STIXGeneral'" x="38.984894" y="0.44687500000000036">𝟥</tspan>
      </text>
     </g>
    </g>
   </g>
   <g id="line2d_12">
    <path d="M 43.967614 67.117058 
L 46.679765 50.454211 
L 49.391916 38.784417 
L 52.104067 30.869353 
L 54.816218 25.811704 
L 57.52837 22.945607 
L 60.240521 21.767437 
L 62.952672 21.890419 
L 65.664823 23.013887 
L 68.376975 24.901888 
L 71.089126 27.367927 
L 73.801277 30.26384 
L 76.513428 33.471539 
L 79.225579 36.896769 
L 81.937731 40.464323 
L 84.649882 44.11432 
L 87.362033 47.799278 
L 90.074184 51.481785 
L 92.786336 55.132632 
L 95.498487 58.7293 
L 98.210638 62.254734 
L 100.922789 65.696332 
L 103.63494 69.045121 
L 106.347092 72.295071 
L 109.059243 75.442536 
L 111.771394 78.485779 
L 114.483545 81.424592 
L 117.195696 84.259968 
L 119.907848 86.993839 
L 122.619999 89.628856 
L 125.33215 92.168206 
L 128.044301 94.615463 
L 130.756453 96.974468 
L 133.468604 99.249226 
L 136.180755 101.443828 
L 138.892906 103.562385 
L 141.605057 105.608979 
L 144.317209 107.587619 
L 147.02936 109.502213 
L 149.741511 111.356542 
L 152.453662 113.154248 
L 155.165813 114.898815 
L 157.877965 116.593565 
L 160.590116 118.241655 
L 163.302267 119.846074 
L 166.014418 121.409644 
L 168.72657 122.93502 
L 171.438721 124.424699 
L 174.150872 125.881021 
L 176.863023 127.306176 
L 179.575174 128.702209 
L 182.287326 130.07103 
L 184.999477 131.414415 
L 187.711628 132.734019 
L 190.423779 134.031378 
L 193.13593 135.307918 
L 195.848082 136.564962 
L 198.560233 137.803735 
L 201.272384 139.025372 
L 203.984535 140.230922 
L 206.696687 141.421353 
L 209.408838 142.597563 
L 212.120989 143.760377 
L 214.83314 144.910558 
L 217.545291 146.04881 
L 220.257443 147.175779 
L 222.969594 148.292064 
L 225.681745 149.398214 
L 228.393896 150.494734 
L 231.106047 151.582091 
L 233.818199 152.660711 
L 236.53035 153.73099 
L 239.242501 154.793289 
L 241.954652 155.847941 
L 244.666804 156.895251 
L 247.378955 157.935501 
L 250.091106 158.968948 
L 252.803257 159.99583 
L 255.515408 161.016364 
L 258.22756 162.030751 
L 260.939711 163.039174 
L 263.651862 164.041803 
L 266.364013 165.038793 
L 269.076164 166.030286 
L 271.788316 167.016415 
L 274.500467 167.997299 
L 277.212618 168.97305 
L 279.924769 169.943771 
L 282.636921 170.909555 
L 285.349072 171.87049 
L 288.061223 172.826656 
L 290.773374 173.778126 
L 293.485525 174.72497 
L 296.197677 175.66725 
L 298.909828 176.605025 
L 301.621979 177.53835 
L 304.33413 178.467275 
L 307.046282 179.391847 
L 309.758433 180.31211 
L 312.470584 181.228104 
L 315.182735 182.139868 
L 317.894886 183.047438 
" clip-path="url(#pffc64c7d29)" style="fill: none; stroke: #000000; stroke-width: 1.8; stroke-linecap: square"/>
   </g>
   <g id="line2d_13">
    <path d="M 43.967614 67.117058 
L 46.679765 50.454211 
L 49.391916 40.614373 
L 52.104067 34.802271 
L 54.816218 31.605848 
L 57.52837 30.202064 
L 60.240521 30.06648 
L 62.952672 30.844173 
L 65.664823 32.284472 
L 68.376975 34.204788 
L 71.089126 36.469086 
L 73.801277 38.974353 
L 76.513428 41.641687 
L 79.225579 44.41021 
L 81.937731 47.232772 
L 84.649882 50.072839 
L 87.362033 52.90219 
L 90.074184 55.699167 
L 92.786336 58.447333 
L 95.498487 61.134429 
L 98.210638 63.751543 
L 100.922789 66.292451 
L 103.63494 68.753089 
L 106.347092 71.131118 
L 109.059243 73.425578 
L 111.771394 75.636602 
L 114.483545 77.765179 
L 117.195696 79.812963 
L 119.907848 81.782117 
L 122.619999 83.675179 
L 125.33215 85.494959 
L 128.044301 87.244453 
L 130.756453 88.926771 
L 133.468604 90.54508 
L 136.180755 92.102557 
L 138.892906 93.602357 
L 141.605057 95.047581 
L 144.317209 96.441252 
L 147.02936 97.786305 
L 149.741511 99.085566 
L 152.453662 100.341751 
L 155.165813 101.557455 
L 157.877965 102.735151 
L 160.590116 103.877191 
L 163.302267 104.985799 
L 166.014418 106.063083 
L 168.72657 107.111026 
L 171.438721 108.1315 
L 174.150872 109.126262 
L 176.863023 110.096961 
L 179.575174 111.045146 
L 182.287326 111.972263 
L 184.999477 112.879667 
L 187.711628 113.768623 
L 190.423779 114.640311 
L 193.13593 115.495833 
L 195.848082 116.336215 
L 198.560233 117.162411 
L 201.272384 117.975311 
L 203.984535 118.775741 
L 206.696687 119.56447 
L 209.408838 120.342211 
L 212.120989 121.109627 
L 214.83314 121.867332 
L 217.545291 122.615897 
L 220.257443 123.355851 
L 222.969594 124.087684 
L 225.681745 124.81185 
L 228.393896 125.528769 
L 231.106047 126.238832 
L 233.818199 126.942399 
L 236.53035 127.639803 
L 239.242501 128.331354 
L 241.954652 129.017336 
L 244.666804 129.698015 
L 247.378955 130.373635 
L 250.091106 131.04442 
L 252.803257 131.710581 
L 255.515408 132.37231 
L 258.22756 133.029785 
L 260.939711 133.683171 
L 263.651862 134.33262 
L 266.364013 134.978273 
L 269.076164 135.62026 
L 271.788316 136.2587 
L 274.500467 136.893706 
L 277.212618 137.525378 
L 279.924769 138.153813 
L 282.636921 138.779097 
L 285.349072 139.401311 
L 288.061223 140.02053 
L 290.773374 140.636824 
L 293.485525 141.250255 
L 296.197677 141.860884 
L 298.909828 142.468765 
L 301.621979 143.073948 
L 304.33413 143.676481 
L 307.046282 144.276406 
L 309.758433 144.873765 
L 312.470584 145.468595 
L 315.182735 146.060931 
L 317.894886 146.650804 
" clip-path="url(#pffc64c7d29)" style="fill: none; stroke-dasharray: 5.18,2.24; stroke-dashoffset: 0; stroke: #d55e00; stroke-width: 1.4"/>
   </g>
   <g id="line2d_14">
    <path d="M 43.967614 67.117058 
L 46.679765 50.454211 
L 49.391916 39.13737 
L 52.104067 31.652907 
L 54.816218 26.984537 
L 57.52837 24.420028 
L 60.240521 23.443651 
L 62.952672 23.672412 
L 65.664823 24.816251 
L 68.376975 26.652126 
L 71.089126 29.006527 
L 73.801277 31.74331 
L 76.513428 34.755004 
L 79.225579 37.956459 
L 81.937731 41.280107 
L 84.649882 44.67236 
L 87.362033 48.090837 
L 90.074184 51.502194 
L 92.786336 54.880407 
L 95.498487 58.205401 
L 98.210638 61.461943 
L 100.922789 64.638748 
L 103.63494 67.727739 
L 106.347092 70.723452 
L 109.059243 73.622534 
L 111.771394 76.42334 
L 114.483545 79.125586 
L 117.195696 81.730073 
L 119.907848 84.238454 
L 122.619999 86.653036 
L 125.33215 88.976628 
L 128.044301 91.212402 
L 130.756453 93.363791 
L 133.468604 95.434394 
L 136.180755 97.427909 
L 138.892906 99.348071 
L 141.605057 101.198608 
L 144.317209 102.983199 
L 147.02936 104.705451 
L 149.741511 106.36887 
L 152.453662 107.97685 
L 155.165813 109.532657 
L 157.877965 111.03942 
L 160.590116 112.500129 
L 163.302267 113.917629 
L 166.014418 115.294621 
L 168.72657 116.633663 
L 171.438721 117.93717 
L 174.150872 119.207422 
L 176.863023 120.44656 
L 179.575174 121.656601 
L 182.287326 122.839435 
L 184.999477 123.996831 
L 187.711628 125.130448 
L 190.423779 126.241835 
L 193.13593 127.332438 
L 195.848082 128.403607 
L 198.560233 129.4566 
L 201.272384 130.492588 
L 203.984535 131.512662 
L 206.696687 132.517836 
L 209.408838 133.509052 
L 212.120989 134.487185 
L 214.83314 135.453047 
L 217.545291 136.407392 
L 220.257443 137.350919 
L 222.969594 138.284274 
L 225.681745 139.208058 
L 228.393896 140.122827 
L 231.106047 141.029093 
L 233.818199 141.927332 
L 236.53035 142.817985 
L 239.242501 143.701457 
L 241.954652 144.578123 
L 244.666804 145.448332 
L 247.378955 146.312402 
L 250.091106 147.170629 
L 252.803257 148.023287 
L 255.515408 148.870627 
L 258.22756 149.71288 
L 260.939711 150.550262 
L 263.651862 151.382968 
L 266.364013 152.211181 
L 269.076164 153.035068 
L 271.788316 153.854782 
L 274.500467 154.670467 
L 277.212618 155.482251 
L 279.924769 156.290256 
L 282.636921 157.094592 
L 285.349072 157.895361 
L 288.061223 158.692656 
L 290.773374 159.486563 
L 293.485525 160.27716 
L 296.197677 161.064521 
L 298.909828 161.848713 
L 301.621979 162.629795 
L 304.33413 163.407826 
L 307.046282 164.182856 
L 309.758433 164.954933 
L 312.470584 165.724101 
L 315.182735 166.4904 
L 317.894886 167.253866 
" clip-path="url(#pffc64c7d29)" style="fill: none; stroke-dasharray: 1.4,2.31; stroke-dashoffset: 0; stroke: #009e73; stroke-width: 1.4"/>
   </g>
   <g id="patch_3">
    <path d="M 30.27125 191.111437 
L 30.27125 13.703438 
" style="fill: none; stroke: #000000; stroke-width: 0.7; stroke-linejoin: miter; stroke-linecap: square"/>
   </g>
   <g id="patch_4">
    <path d="M 30.27125 191.111438 
L 331.59125 191.111438 
" style="fill: none; stroke: #000000; stroke-width: 0.7; stroke-linejoin: miter; stroke-linecap: square"/>
   </g>
   <g id="text_14">
    <text style="font: 700 8.5px 'Helvetica', 'Arial', 'DejaVu Sans', sans-serif; text-anchor: middle" x="180.93125" y="7.703438" transform="rotate(-0 180.93125 7.703438)">ROP constraint lowers synthetic-trajectory error (mechanism)</text>
   </g>
   <g id="legend_1">
    <g id="line2d_15">
     <path d="M 183.922969 22.711563 
L 190.922969 22.711563 
L 197.922969 22.711563 
" style="fill: none; stroke: #000000; stroke-width: 1.8; stroke-linecap: square"/>
    </g>
    <g id="text_15">
     <text style="font: 7px 'Helvetica', 'Arial', 'DejaVu Sans', sans-serif; text-anchor: start" x="203.522969" y="25.161563" transform="rotate(-0 203.522969 25.161563)">ground truth (in ROP)</text>
    </g>
    <g id="line2d_16">
     <path d="M 183.922969 32.887813 
L 190.922969 32.887813 
L 197.922969 32.887813 
" style="fill: none; stroke-dasharray: 5.18,2.24; stroke-dashoffset: 0; stroke: #d55e00; stroke-width: 1.4"/>
    </g>
    <g id="text_16">
     <text style="font: 7px 'Helvetica', 'Arial', 'DejaVu Sans', sans-serif; text-anchor: start" x="203.522969" y="35.337813" transform="rotate(-0 203.522969 35.337813)">unconstrained, violates ROP (9.9% err)</text>
    </g>
    <g id="line2d_17">
     <path d="M 183.922969 43.005 
L 190.922969 43.005 
L 197.922969 43.005 
" style="fill: none; stroke-dasharray: 1.4,2.31; stroke-dashoffset: 0; stroke: #009e73; stroke-width: 1.4"/>
    </g>
    <g id="text_17">
     <text style="font: 7px 'Helvetica', 'Arial', 'DejaVu Sans', sans-serif; text-anchor: start" x="203.522969" y="45.455" transform="rotate(-0 203.522969 45.455)">ROP-projected / FEC (3.1% err)</text>
    </g>
   </g>
  </g>
 </g>
 <defs>
  <clipPath id="pffc64c7d29">
   <rect x="30.27125" y="13.703438" width="301.32" height="177.408"/>
  </clipPath>
 </defs>
</svg>
